<?xml version="1.0" encoding="UTF-8"?>
<!DOCTYPE svg PUBLIC "-//W3C//DTD SVG 1.1//EN" "http://www.w3.org/Graphics/SVG/1.1/DTD/svg11.dtd">
<svg xmlns="http://www.w3.org/2000/svg" version="1.1" width="590px" height="547px" style="shape-rendering:geometricPrecision; text-rendering:geometricPrecision; image-rendering:optimizeQuality; fill-rule:evenodd; clip-rule:evenodd" xmlns:xlink="http://www.w3.org/1999/xlink">
<g><path style="opacity:0.994" fill="#ffffff" d="M 65.5,-0.5 C 218.167,-0.5 370.833,-0.5 523.5,-0.5C 559.619,7.95222 581.619,30.2856 589.5,66.5C 589.5,159.833 589.5,253.167 589.5,346.5C 583.215,378.626 564.548,400.126 533.5,411C 527.925,412.515 522.258,413.515 516.5,414C 464.167,414.333 411.833,414.667 359.5,415C 342.143,455.401 324.976,495.901 308,536.5C 306.021,540.3 303.521,543.634 300.5,546.5C 297.167,546.5 293.833,546.5 290.5,546.5C 285.901,543.339 282.735,539.006 281,533.5C 264.357,493.901 247.524,454.401 230.5,415C 177.5,414.667 124.5,414.333 71.5,414C 39.2735,410.14 16.7735,393.306 4,363.5C 2.35053,358.072 0.850528,352.738 -0.5,347.5C -0.5,253.5 -0.5,159.5 -0.5,65.5C 7.83333,29.8333 29.8333,7.83333 65.5,-0.5 Z M 196.5,120.5 C 224.382,121.326 240.882,135.326 246,162.5C 246.5,198.498 246.667,234.498 246.5,270.5C 235.167,270.5 223.833,270.5 212.5,270.5C 212.667,235.832 212.5,201.165 212,166.5C 209.042,160.266 204.208,156.266 197.5,154.5C 196.501,143.186 196.168,131.853 196.5,120.5 Z M 71.5,125.5 C 83.1667,125.5 94.8333,125.5 106.5,125.5C 106.333,143.836 106.5,162.17 107,180.5C 117.556,169.646 130.389,165.48 145.5,168C 166,172.5 178.5,185 183,205.5C 187.018,223.324 184.351,239.991 175,255.5C 157.153,274.004 136.653,277.837 113.5,267C 111.241,265.285 109.074,263.452 107,261.5C 106.503,264.146 106.336,266.813 106.5,269.5C 94.8333,269.5 83.1667,269.5 71.5,269.5C 71.5,221.5 71.5,173.5 71.5,125.5 Z M 453.5,166.5 C 465.472,166.737 475.306,171.404 483,180.5C 483.499,176.848 483.665,173.182 483.5,169.5C 494.833,169.5 506.167,169.5 517.5,169.5C 517.667,206.502 517.5,243.502 517,280.5C 513.863,305.314 500.03,319.814 475.5,324C 467.507,324.5 459.507,324.666 451.5,324.5C 451.5,313.833 451.5,303.167 451.5,292.5C 468.321,295.687 478.488,289.021 482,272.5C 482.667,268.5 482.667,264.5 482,260.5C 476.392,267.891 468.892,272.058 459.5,273C 439.255,275.623 423.088,268.79 411,252.5C 406.278,243.056 404.445,233.056 405.5,222.5C 404.772,189.243 420.772,170.576 453.5,166.5 Z M 320.5,168.5 C 349.317,166.316 370.15,177.983 383,203.5C 390.546,234.576 379.712,256.743 350.5,270C 321.33,278.941 297.496,271.441 279,247.5C 265.234,218.728 271.401,195.228 297.5,177C 304.887,173.042 312.554,170.208 320.5,168.5 Z"/></g>
<g><path style="opacity:0.958" fill="#ffffff" d="M 325.5,198.5 C 342.643,198.809 351.143,207.476 351,224.5C 347.5,238.99 338.333,245.156 323.5,243C 307.239,236.229 302.739,224.729 310,208.5C 313.9,202.98 319.067,199.647 325.5,198.5 Z"/></g>
<g><path style="opacity:0.959" fill="#ffffff" d="M 457.5,199.5 C 478.063,198.56 486.896,208.227 484,228.5C 476.754,242.669 465.92,246.502 451.5,240C 442.853,234.072 439.686,225.905 442,215.5C 444.685,207.65 449.852,202.316 457.5,199.5 Z"/></g>
<g><path style="opacity:0.954" fill="#ffffff" d="M 125.5,200.5 C 139.931,200.541 147.931,207.708 149.5,222C 145.644,239.931 134.978,245.931 117.5,240C 106.832,231.781 104.665,221.614 111,209.5C 114.752,204.551 119.585,201.551 125.5,200.5 Z"/></g>
</svg>
