<svg xmlns="http://www.w3.org/2000/svg" xmlns:xlink="http://www.w3.org/1999/xlink" version="1.1" x="0px" y="0px" width="295.371px" height="85.254px" viewBox="3 0 70 32" enable-background="new 0 0 295.371 85.254" xml:space="preserve"><path d="M25.685 24.519c-.543-4.11-2.566-7.462-4.635-7.48-2.07 0-5.09 3.356-6.851 7.485-1.76 4.128.232 7.476 4.66 7.476 4.455-.044 7.37-3.365 6.826-7.481z" fill="#E02535"/><path d="M4.574 13.578C1.928 13.578 0 15.668 0 18.313c0 2.643 1.928 4.67 4.574 4.67 1.47 0 2.86-.66 3.778-1.807-.1-.094-.354-.635-1.204-.635-.804 0-.984.803-2.572.803-1.56.003-2.85-1.318-2.85-3.031 0-1.716 1.29-3.095 2.845-3.095 1.42 0 1.76.843 2.488.843.729 0 1.154-.584 1.256-.675a4.755 4.755 0 0 0-3.741-1.808zm9.323.275h-3.716c-.628 0-1.068.378-1.068.976v.55h1.657s.062 5.597-.008 6.202v.003c-.022.462-.222 1.567-1.288 2.067-.875.41-.882.8-.927 1.41.012.044.03.07.057.07h.005c.005 0 .007 0 .01-.002.032-.007.868-.215.989-.264l-.003-.003c.786-.244 1.988-.781 2.56-1.896 0 0 .536-.826.526-2.599v-4.991h.079c.63 0 1.13-.376 1.13-.977v-.546" fill="#fff"/><path d="M33.068 10.906c-3.877-1.523-7.793-1.365-8.794.442-.977 1.832.472 6.068 3.231 9.61 2.757 3.54 6.648 3.422 8.797-.45 2.126-3.864.633-8.08-3.234-9.602z" fill="#EA8B00"/><path d="M13.353 12.144c3.442 2.352 7.296 3.061 8.66 1.536 1.378-1.536.903-6.025-.998-10.092-1.899-4.067-5.724-4.82-8.678-1.52C9.42 5.36 9.922 9.8 13.353 12.143z" fill="#0079C3"/><path d="M44.434 20.251c-.396.07-.94.126-1.474.168-.531.043-1.095.062-1.688.062h-1.684v-5.397c0-.287.081-.51.245-.67.163-.158.378-.24.645-.24h3.184v.45c0 .114-.02.203-.062.262a.462.462 0 0 1-.148.139.352.352 0 0 1-.153.057.823.823 0 0 1-.106.01h-2.22v4.477h1.243c.267 0 .596-.015.986-.047a20.29 20.29 0 0 0 1.23-.133V14.72c0-.287.068-.51.21-.67.14-.161.345-.24.612-.24h.584v2.764h.677V14.72c0-.287.072-.51.215-.67.144-.161.347-.24.609-.24h.583v8.255c0 .292-.069.517-.205.672-.136.159-.334.235-.588.235h-.614v-5.486h-.677v4.584c0 .292-.072.517-.215.672-.143.159-.341.235-.598.235h-.594V20.25h.003zm14.048-3.12h-1.51v2.418c0 .294-.073.517-.216.668-.143.153-.346.232-.608.232h-.584V14.73c0-.286.072-.509.215-.67.141-.158.34-.237.586-.237h.604v2.391h1.043c.017 0 .054.005.104.015.052.01.101.03.153.064.057.03.106.077.148.139.042.061.062.14.062.244v.455h.003zm-5.575-.378a1.501 1.501 0 0 0-.344-.96 1.243 1.243 0 0 0-.371-.298.974.974 0 0 0-.455-.112.974.974 0 0 0-.455.112 1.207 1.207 0 0 0-.37.299c-.107.123-.189.27-.248.435-.06.165-.089.341-.089.524 0 .393.114.722.339.994.227.272.502.405.82.405.322 0 .596-.136.826-.405.233-.27.346-.601.346-.994zm4.16 5.316v.43c0 .116-.02.205-.061.267a.43.43 0 0 1-.149.143.361.361 0 0 1-.158.057.911.911 0 0 1-.111.01h-6.149v-2.104c0-.287.07-.512.21-.673.141-.158.344-.237.613-.237h.584v2.104h5.222v.003zm-2.605-7.185a.5.5 0 0 1-.065.274.488.488 0 0 1-.148.146.394.394 0 0 1-.16.057.913.913 0 0 1-.112.01h-.16c.167.195.298.41.392.64.097.233.144.48.144.74 0 .33-.072.64-.213.92-.14.281-.334.52-.576.724-.235.202-.512.36-.828.474-.316.114-.65.17-.999.17-.356 0-.692-.054-1.009-.165a2.437 2.437 0 0 1-.828-.48 2.16 2.16 0 0 1-.569-.724 2.05 2.05 0 0 1-.207-.92c0-.254.047-.499.143-.734.094-.235.228-.45.403-.645h-.655v-.438c0-.111.02-.197.06-.264a.417.417 0 0 1 .153-.149.415.415 0 0 1 .16-.061.74.74 0 0 1 .122-.015h1.503v-.206c0-.215.052-.383.156-.504.103-.121.264-.183.48-.183h.857v.89h1.958v.443h-.002zm10.453 6.566a.89.89 0 0 0-.121-.442 1.434 1.434 0 0 0-.322-.376 1.756 1.756 0 0 0-1.063-.36c-.21 0-.41.031-.596.098a1.57 1.57 0 0 0-.48.262c-.14.111-.25.235-.326.376a.91.91 0 0 0-.116.442c0 .164.04.314.116.458.077.143.186.27.327.378.133.104.291.188.48.25.185.062.383.091.595.091a1.76 1.76 0 0 0 1.063-.341c.134-.109.24-.235.322-.378a.9.9 0 0 0 .12-.458zm1.503-.01h.01c0 .292-.08.567-.242.824a2.318 2.318 0 0 1-.653.665 3.454 3.454 0 0 1-.962.447 4.086 4.086 0 0 1-1.162.166c-.415 0-.806-.057-1.174-.166a3.422 3.422 0 0 1-.962-.447 2.237 2.237 0 0 1-.648-.665 1.538 1.538 0 0 1-.237-.823c0-.277.079-.544.237-.797.158-.252.374-.472.648-.66.272-.188.593-.338.962-.45a4.121 4.121 0 0 1 1.174-.165c.406 0 .791.054 1.157.165.366.112.685.26.957.45a2.3 2.3 0 0 1 .653.66c.163.253.242.52.242.797zm.314-5.748a.47.47 0 0 1-.062.26.344.344 0 0 1-.148.133.388.388 0 0 1-.153.057.805.805 0 0 1-.107.01h-4.927v.502h5.471v.43a.454.454 0 0 1-.21.4.415.415 0 0 1-.163.058c-.052.005-.087.01-.107.01h-2.24v.637h3.885v.403a.464.464 0 0 1-.067.267.494.494 0 0 1-.144.144.445.445 0 0 1-.163.057.812.812 0 0 1-.103.01h-8.649v-.44c0-.102.02-.183.062-.245a.357.357 0 0 1 .138-.129.42.42 0 0 1 .161-.057c.052-.005.09-.01.116-.01H62.7v-.637h-2.784v-2.658a1 1 0 0 1 .343-.76 1.18 1.18 0 0 1 .831-.318h5.701v.44a.491.491 0 0 1-.061.26.43.43 0 0 1-.149.143.387.387 0 0 1-.153.057.82.82 0 0 1-.106.01h-4.995v.531h5.395v.435h.01zm7.86-.037c0-.183-.04-.358-.119-.526a1.408 1.408 0 0 0-.316-.43 1.44 1.44 0 0 0-.47-.3 1.54 1.54 0 0 0-.569-.109c-.205 0-.398.035-.578.11-.18.07-.339.17-.47.298a1.255 1.255 0 0 0-.435.957c0 .196.037.379.114.544.076.168.183.314.32.44.132.121.288.215.47.285a1.621 1.621 0 0 0 1.148 0c.18-.07.339-.164.47-.285.13-.126.237-.272.316-.44.08-.168.119-.349.119-.544zm1.466 0c0 .31-.08.598-.233.865a2.42 2.42 0 0 1-.627.705 3.123 3.123 0 0 1-.93.465 3.76 3.76 0 0 1-1.15.17c-.403 0-.781-.054-1.137-.165a3.072 3.072 0 0 1-.94-.47 2.263 2.263 0 0 1-.628-.695 1.712 1.712 0 0 1-.232-.875c0-.296.074-.578.228-.843.153-.264.363-.497.632-.7.265-.195.574-.35.93-.47a3.68 3.68 0 0 1 1.147-.175c.403 0 .782.06 1.14.176.356.116.665.272.93.47.272.202.484.435.64.7.15.264.23.545.23.842zm.583 6.844c0 .116-.02.205-.062.267a.453.453 0 0 1-.138.143.354.354 0 0 1-.153.057.756.756 0 0 1-.106.01h-6.48v-1.95c0-.288.069-.508.205-.663.136-.159.338-.235.608-.235h.593v1.943h5.53v.428h.003zm1.041-3.845a.435.435 0 0 1-.067.257.492.492 0 0 1-.143.144.35.35 0 0 1-.16.067c-.053.004-.087.01-.107.01h-3.27v.65c0 .301-.073.529-.216.684-.143.156-.339.235-.588.235h-.594v-1.57h-3.98v-.42c0-.109.02-.195.061-.257a.353.353 0 0 1 .139-.134.448.448 0 0 1 .163-.056.807.807 0 0 1 .116-.01h8.649v.4h-.003z" fill="#fff"/></svg>