<svg xmlns="http://www.w3.org/2000/svg" width="1351.0598pt" height="240pt" viewBox="0 0 1351.0597 240"><path d="M388.771 667.555c-16.269 0-30.411 6.36-39.957 17.443-9.545 11.083-14.494 26.458-14.494 44.102 0 13.825 3.028 28.281 11.66 39.773 8.633 11.492 23.14 19.223 42.653 19.223 10.498 0 24.43-2.544 35.318-13.768a7.5 7.5 0 0 0 .01-.012c3.878-4.014 6.362-8.32 8.002-12.447 2.218 5.824 5.474 10.85 9.654 14.838 8.197 7.82 19.379 11.523 31.14 11.523 14.727 0 26.591-5.46 34.183-14.167 3.054-3.504 5.242-7.52 6.974-11.729v15.85a7.5 7.5 0 0 0 7.5 7.5h21.131a7.5 7.5 0 0 0 7.5-7.5v-41.998c0-4.369 1.18-6.578 1.215-6.627a7.5 7.5 0 0 0 .092-.135c.745-1.123 2.47-2.184 4.672-2.184 2.616 0 2.96.851 3.507 1.944.127.255.344 1.48.344 4.455v44.545a7.5 7.5 0 0 0 7.5 7.5h21.422a7.5 7.5 0 0 0 7.5-7.5v-6.17c.914 1.571 1.945 3.147 3.358 4.644a7.5 7.5 0 0 0 .04.043c8.357 8.714 19.663 11.112 29.963 11.112 25.036 0 40.403-15.538 40.403-32.19 0-6.449-2.288-12.798-6.73-17.492-1.71-1.807-3.739-3.302-5.92-4.654h2.6a7.5 7.5 0 0 0 7.11-5.112h4.54v31.797c0 2.982-.264 9.62 3.847 15.963 4.11 6.343 12.646 10.832 24.793 10.832 4.038 0 10.663-.473 18.273-2.53a7.5 7.5 0 0 0 3.461-2.054 7.5 7.5 0 0 0 6.217 3.305h20.992a7.5 7.5 0 0 0 7.5-7.5v-35.32c0-4.109.588-7.053 1.577-8.247.988-1.193 3.43-3.03 12.79-2.16a7.5 7.5 0 0 0 2.694-.24v18.875c0 3.532-.939 14.836 6.256 23.883 5.674 7.44 15.604 12.553 27.492 12.553 6.685 0 12.03-1.91 16.232-4.36a7.5 7.5 0 0 0 5.61 2.522h20.433a7.5 7.5 0 0 0 7.422-8.58 53.21 53.21 0 0 1-.5-4.608c-.002-.845-.118-5.823-.162-7.406 1.65 3.7 3.612 7.23 6.285 10.33a7.5 7.5 0 0 0 .059.068c8.152 9.228 19.391 12.036 30.021 12.036 10.199 0 18.824-2.893 25.297-8.467 10.379-8.793 11.546-20.686 11.838-26.45a7.5 7.5 0 0 0-7.49-7.88h-20.703a7.5 7.5 0 0 0-7.483 6.996c-.345 5.123-1.597 6.38-1.869 6.629-.272.248-.266.134-.299.134-.645 0 .21.398-.195-.037l.043.047c-.441-.48-1.95-3.904-2.555-7.61-.604-3.704-.714-7.585-.714-9.31 0-3.534.377-8.725 1.445-12.045.534-1.66 1.227-2.74 1.553-3.072.325-.332-.027-.223.562-.223.007 0-.002-.002.004-.002.05.056.324.352.623 1.061.644 1.525.96 3.854 1.145 5.486a7.5 7.5 0 0 0 7.45 6.653h20.573a7.5 7.5 0 0 0 7.5-7.559c-.01-1.236-.295-2.328-.416-3.51h1.152v31.797c0 2.982-.26 9.62 3.85 15.963s12.646 10.832 24.793 10.832c4.038 0 10.66-.473 18.271-2.53a7.5 7.5 0 0 0 3.46-2.052 7.5 7.5 0 0 0 6.218 3.309h20.992a7.5 7.5 0 0 0 7.5-7.5v-11.918c2.032 3.918 4.423 7.529 7.475 10.441 8.196 7.82 19.38 11.524 31.14 11.524 14.728 0 26.59-5.461 34.182-14.168a40.922 40.922 0 0 0 4.842-6.903v11.024a7.5 7.5 0 0 0 7.5 7.5h21.135a7.5 7.5 0 0 0 7.5-7.5v-41.998c0-4.369 1.178-6.578 1.213-6.627a7.5 7.5 0 0 0 .092-.137c.745-1.123 2.471-2.182 4.674-2.182 2.616 0 2.956.85 3.505 1.944.127.255.344 1.48.344 4.455v44.545a7.5 7.5 0 0 0 7.5 7.5h21.422a7.5 7.5 0 0 0 7.5-7.5v-38.729c0-13.496-.551-18.695-2.424-23.943a7.5 7.5 0 0 0-.035-.096c-2.708-7.276-11.8-18.363-28.87-18.363-7.424 0-13.27 2.068-17.817 4.73a7.5 7.5 0 0 0-6.014-3.021h-20.144a7.5 7.5 0 0 0-7.473 8.133c.318 3.76.33 9.058.342 10.83-1.31-2.3-2.81-4.503-4.59-6.534-7.516-8.573-19.286-13.85-33.963-13.85-15.96 0-27.942 6.377-35.02 15.493-1.589 2.047-2.87 4.222-4.015 6.436v-12.866a7.5 7.5 0 0 0-2.912-5.931 7.5 7.5 0 0 0 3.62-6.418V675.76a7.5 7.5 0 0 0-7.5-7.5h-22.411a7.5 7.5 0 0 0-7.5 7.5v18.295a7.5 7.5 0 0 0 3.623 6.42 7.5 7.5 0 0 0-1.262 1.238 7.5 7.5 0 0 0-5.354-2.246h-9.535v-14.201a7.5 7.5 0 0 0-10.088-7.041l-20.853 7.664a7.5 7.5 0 0 0-4.912 7.039v6.539h-6.26a7.5 7.5 0 0 0-7.28 5.695c-7.24-5.439-15.932-7.547-23.921-7.547-5.951 0-15.71 1.246-24.715 7.783-4.721 3.429-8.93 8.456-11.898 15.04v-13.895a7.5 7.5 0 0 0-7.5-7.5h-21.573a7.5 7.5 0 0 0-7.5 7.5v36.17c0 6.1-.363 11.04-1.107 12.826-.372.893-.509.993-.932 1.246-.423.254-1.503.7-3.94.7-3.479 0-2.482-.03-2.944-1.073-.463-1.043-.758-4.052-.758-7.174v-42.695a7.5 7.5 0 0 0-7.5-7.5h-21.282a7.5 7.5 0 0 0-4.49 1.494 7.5 7.5 0 0 0-4.635-1.91c-.617-.03-1.222-.051-1.812-.06a7.5 7.5 0 0 0-1.084.062c-6.371.05-11.763 1.353-15.994 3.58a7.5 7.5 0 0 0-6.313-3.451h-19.715a7.5 7.5 0 0 0-5.49 2.392 7.5 7.5 0 0 0-4.734-1.683h-9.526v-14.201a7.5 7.5 0 0 0-10.085-7.041l-20.854 7.664a7.5 7.5 0 0 0-4.912 7.039v6.539h-6.26a7.5 7.5 0 0 0-7.389 6.217c-.655-.575-1.23-1.25-1.935-1.754-6.579-4.697-14.768-6.594-23.3-6.594-10.438 0-19.763 2.312-26.954 7.353-5.168 3.623-8.972 8.952-10.75 15.077a33.067 33.067 0 0 0-1.201-4.254 7.5 7.5 0 0 0-.035-.096c-2.708-7.274-11.8-18.363-28.87-18.363-7.423 0-13.268 2.067-17.816 4.73a7.5 7.5 0 0 0-6.015-3.021h-20.141a7.5 7.5 0 0 0-7.475 8.133c.365 4.31.395 12.13.395 12.416v3.222c-1.689-4.069-3.805-7.955-6.774-11.342-7.514-8.573-19.28-13.85-33.953-13.85-15.964 0-27.948 6.375-35.027 15.491-5.82 7.496-8.39 16.324-9.156 24.752a7.5 7.5 0 0 0-1.215-.1h-23.132a7.5 7.5 0 0 0-7.496 7.264c-.165 5.233-1.699 7.869-3.525 9.563-1.827 1.693-4.38 2.609-7.422 2.609-3.66 0-5.5-.967-7.258-2.613s-3.292-4.324-4.371-7.56c-2.158-6.475-2.293-14.456-2.293-17.509 0-9.765 1.722-18.242 4.537-23.43 2.815-5.186 5.54-7.228 11.092-7.228 5.014 0 5.85 1.431 7.15 3.793 1.3 2.362 1.748 5.524 2.002 7.623a7.5 7.5 0 0 0 7.446 6.598h22.412a7.5 7.5 0 0 0 7.5-7.5c0-12.142-4.898-22.957-13.205-30.301-8.308-7.344-19.728-11.238-32.456-11.238zm-300.273.515a7.5 7.5 0 0 0-7.5 7.5v224.483a7.5 7.5 0 0 0 7.5 7.5h76.957a7.5 7.5 0 0 0 7.5-7.5V675.57a7.5 7.5 0 0 0-7.5-7.5zm-256.537.01a7.5 7.5 0 0 0-7.5 7.5v224.475a7.5 7.5 0 0 0 7.5 7.5h76.965a7.5 7.5 0 0 0 7.5-7.5V675.58a7.5 7.5 0 0 0-7.5-7.5zm99.406 0a7.5 7.5 0 0 0-7.5 7.5v224.475a7.5 7.5 0 0 0 7.5 7.5h21.121c66.724 0 121.065-53.648 121.065-119.738S19.213 668.08-47.512 668.08zm457.404 14.475c9.694 0 17.355 2.909 22.522 7.476 3.452 3.053 5.813 6.915 7.074 11.563h-7.635c-.545-2.01-1.28-4.201-2.52-6.453-3.168-5.759-10.417-11.56-20.29-11.56-10.766 0-19.605 6.465-24.276 15.072-4.67 8.606-6.353 19.209-6.353 30.586 0 3.052-.135 12.66 3.062 22.251 1.6 4.796 4.08 9.77 8.348 13.766 4.268 3.997 10.46 6.664 17.512 6.664 6.19 0 12.643-1.992 17.623-6.611 3.451-3.201 5.903-7.643 7.223-12.824h8.212c-.824 3.745-2.39 7.565-6.091 11.4-7.277 7.499-16.324 9.21-24.55 9.21-15.817 0-24.717-5.323-30.657-13.231-5.941-7.91-8.655-19.2-8.655-30.764 0-14.85 4.13-26.499 10.862-34.315 6.73-7.815 16.062-12.23 28.59-12.23zm-292.773.515h61.957v209.483H95.998Zm-256.537.01h61.965v209.475h-61.965zm99.406 0h13.621c58.712 0 106.065 46.85 106.065 104.737 0 57.887-47.353 104.738-106.065 104.738h-13.62Zm1054.928.18h7.412v3.295h-7.412zm-301.283 12.752v10.955a7.5 7.5 0 0 0 4.683 6.95 7.5 7.5 0 0 0-4.683 6.948v32.354a7.5 7.5 0 0 0 .002.172c.074 3.226-.434 7.113 2.498 11.656 1.466 2.272 3.956 4.156 6.5 5.096 2.04.753 4.146 1.01 6.373 1.107-3.144.455-5.93.707-7.584.707-8.995 0-11.03-2.177-12.205-3.99-1.175-1.813-1.436-4.822-1.436-7.805v-39.297a7.5 7.5 0 0 0-4.681-6.949 7.5 7.5 0 0 0 4.681-6.949v-8.805zm258.756 0v10.955a7.5 7.5 0 0 0 4.681 6.947 7.5 7.5 0 0 0-4.681 6.951v32.354a7.5 7.5 0 0 0 .002.172c.074 3.226-.436 7.116 2.5 11.66 1.467 2.272 3.959 4.153 6.503 5.092 2.039.752 4.144 1.009 6.37 1.107-3.145.455-5.93.707-7.586.707-8.995 0-11.03-2.177-12.205-3.99-1.175-1.813-1.438-4.822-1.438-7.805v-39.297a7.5 7.5 0 0 0-4.682-6.949 7.5 7.5 0 0 0 4.682-6.949v-8.805zm-386.301 16.04c10.945 0 13.78 5.863 14.785 8.542 1.254 3.524 1.545 5.726 1.545 18.861v31.229h-6.422v-37.045c0-2.978.218-6.864-1.914-11.147a7.5 7.5 0 0 0-.016-.03c-2.262-4.494-7.393-8.752-14.09-9.788a29.107 29.107 0 0 1 6.112-.621zm579.224 0c10.945 0 13.784 5.864 14.788 8.542 1.253 3.522 1.543 5.725 1.543 18.861v31.229h-6.422v-37.045c0-2.978.216-6.864-1.916-11.147a7.5 7.5 0 0 0-.014-.03c-2.263-4.494-7.397-8.756-14.098-9.79a29.19 29.19 0 0 1 6.12-.62zm-662.703 1.104c6.509 1.305 11.06 4.144 14.373 7.924 4.576 5.22 6.985 12.75 6.985 21.352 0 8.628-2.5 16.367-7.213 21.773-3.633 4.167-8.64 7.225-15.862 8.43 4.168-1.165 8.193-3.425 10.965-7.27 4.179-5.794 5.688-13.466 5.688-23.793 0-5.234-.308-11.85-3.422-18.207-2.1-4.286-6.248-8.088-11.514-10.209zm581.344 0c6.515 1.305 11.07 4.142 14.385 7.924 4.577 5.22 6.986 12.75 6.986 21.352 0 8.628-2.501 16.367-7.215 21.773-3.633 4.167-8.64 7.226-15.863 8.43 4.166-1.165 8.19-3.426 10.963-7.27 4.18-5.793 5.691-13.464 5.691-23.793 0-5.237-.31-11.854-3.427-18.21-2.102-4.287-6.253-8.086-11.52-10.206zm-17.822.332c-1.482.687-2.888 1.473-4.09 2.451-3.498 2.849-5.593 6.52-6.89 10.014-2.597 6.99-2.454 13.872-2.454 17.188 0 8.855 1.33 16.113 5.365 21.828 2.878 4.074 7.277 6.67 12.038 7.863-6.348-.84-11.69-3.197-15.65-6.977-4.996-4.766-8.315-11.908-8.315-22.853 0-7.383 1.973-15.334 6.35-20.97 3.05-3.93 7.287-6.99 13.646-8.544zm-581.362.004c-1.478.686-2.878 1.47-4.078 2.446-3.5 2.847-5.595 6.518-6.894 10.013-2.598 6.99-2.457 13.874-2.457 17.19 0 8.853 1.326 16.11 5.361 21.826 2.877 4.075 7.278 6.671 12.041 7.865-6.348-.84-11.687-3.197-15.648-6.976-4.995-4.767-8.317-11.909-8.317-22.854 0-7.383 1.975-15.334 6.352-20.97 3.05-3.928 7.286-6.985 13.64-8.54zm436.438.098c2.915.763 5.68 1.944 7.88 3.617 2.379 1.809 4.2 4.11 5.366 7.227h-5.64c-.285-1.01-.408-1.896-.862-2.971-.936-2.219-2.343-4.67-4.775-6.738-.548-.466-1.318-.744-1.97-1.135zm-164.906.168h4.527l.203 6.492a7.5 7.5 0 0 0 5.494 6.99c-3.417 5.46-3.66 11.364-3.66 15.617v27.82h-5.992v-46.544c0-2.362-.339-6.436-.572-10.375zm-206.448.004h5.284l.191 3.67a7.5 7.5 0 0 0 3.416 5.904c-1.654 3.326-2.578 7.488-2.578 12.85v34.498h-6.13V719.31c0-.12-.156-3.613-.183-5.55zm579.225 0h5.283l.192 3.67a7.5 7.5 0 0 0 3.416 5.904c-1.654 3.326-2.577 7.488-2.577 12.85v34.498h-6.134V719.31c0-.12-.154-3.613-.18-5.55zm-465.293.133c1.804.614 3.436 1.343 4.695 2.242a13.39 13.39 0 0 1 2.504 2.34h-3.66c-.97-1.809-2.16-3.362-3.539-4.582zm351.842.01h5.992v56.779h-5.992zm-205.701.138h6.28v35.196c0 3.122-.292 7.986 2.046 13.255 2.055 4.631 7.472 8.641 13.978 9.592-1.154.163-2.104.436-3.556.436-7.362 0-13.309-3.655-15.596-6.672a7.5 7.5 0 0 0-.13-.17c-2.064-2.565-3.022-11.046-3.022-14.594zm45.963 0h6.572v39.743a7.5 7.5 0 0 0 0 .134c.247 13.663.342 15.196.37 16.764h-5.355l-.19-2.568a7.5 7.5 0 0 0-4.071-6.121c.11-.235.314-.451.412-.686 2.625-6.3 2.262-12.496 2.262-18.596zm-70.461.032v3.306c-2.78.19-5.302.664-7.596 1.371.578-.797 1.158-1.584 1.924-2.209 1.242-1.012 2.999-1.922 5.672-2.468zm118.382.57c-.55.423-1.115.838-1.58 1.312-2.68 2.733-4.131 5.903-5.12 8.979-1.98 6.152-2.167 12.382-2.167 16.64 0 2.253.098 6.74.91 11.723.813 4.983 1.926 10.567 6.311 15.342a7.5 7.5 0 0 0 .045.047c1.409 1.508 3.052 2.476 4.682 3.213-4.588-.812-8.262-2.589-11.567-6.317-4.839-5.633-7.234-13.066-7.234-23.299 0-14.474 4.723-20.859 10.082-24.75 1.766-1.282 3.7-2.164 5.638-2.89zm-266.117 1.135c-1.985 2.4-3.355 5.515-3.355 8.779 0 4.25 2.756 9.172 6.021 11.254 3.265 2.081 6.17 2.646 9.301 3.498l12.89 3.54a7.5 7.5 0 0 0 .016.005c5.664 1.544 9.123 3.615 10.99 5.588 1.868 1.972 2.626 3.846 2.626 7.18 0 5.533-2.94 11.535-11.067 14.775 3.718-2.988 6.072-7.18 6.072-11.649 0-2.94-1.397-7.282-4.324-9.955-2.926-2.673-6.436-4.069-11.113-5.359a7.5 7.5 0 0 0-.026-.006l-12.906-3.508-.004-.002c-2.94-.862-6.417-2.01-8.808-3.846-2.392-1.835-3.965-3.626-3.965-8.818 0-4.659 1.674-7.593 5.513-10.285.615-.431 1.398-.804 2.14-1.191zm-77.627 5.213c-.017.025-.029.058-.047.084-.012.019-.032.031-.044.05zm579.227 0c-.018.025-.03.058-.047.084-.013.019-.032.031-.045.05zm-644.985 5.39c4.577 0 5.065.968 6.344 3.58 1.28 2.613 1.893 7.342 1.893 11.61 0 8.687-1.609 13.293-2.854 15.02-1.245 1.726-1.992 2.03-5.103 2.03-3.503 0-4.385-.538-5.633-2.306-1.248-1.768-2.615-6.003-2.615-13.176 0-3.208.213-8.455 1.517-11.963.652-1.754 1.464-2.924 2.301-3.605.837-.682 1.765-1.19 4.15-1.19zm581.346 0c4.577 0 5.07.971 6.352 3.584 1.281 2.613 1.894 7.34 1.894 11.606 0 8.686-1.609 13.29-2.855 15.017-1.247 1.728-1.998 2.033-5.102 2.033-3.496 0-4.379-.539-5.629-2.308-1.25-1.77-2.617-6.002-2.617-13.174 0-3.209.212-8.456 1.516-11.965.652-1.754 1.463-2.925 2.299-3.605.836-.681 1.76-1.188 4.142-1.188zm-333.781.996v29.795a7.5 7.5 0 0 0-4.95-1.2c-2.53.278-3.375.376-6.279.376-1.116 0-1.3-.094-1.753-.174-.09-.684-.223-1.644-.258-3.105v-24.705h9.525a7.5 7.5 0 0 0 3.715-.987zm258.754.008v29.787a7.5 7.5 0 0 0-4.95-1.199c-2.53.277-3.374.375-6.267.375-1.121 0-1.309-.093-1.764-.174-.089-.683-.222-1.643-.257-3.105v-24.705h9.535a7.5 7.5 0 0 0 3.703-.979zm-383.26 10.58c1.836 4.233 4.509 7.706 7.508 10.008 1.018.78 2.047 1.393 3.07 1.996h-6.96a7.5 7.5 0 0 0-3.567.902v-11.418c0-.667-.048-.861-.05-1.488zm30.82 18.959 3.579.972c2.012.556 3.206 1.06 3.984 1.442-.402.206-1.058.412-3.133.412-2.905 0-3.483-.63-3.787-.94-.304-.31-.579-.916-.637-1.82a7.5 7.5 0 0 0-.006-.066zm281.069 2.8h5.87c-.846 2.673-2.415 5.324-5.47 7.905a7.5 7.5 0 0 0-.058.05c-2.778 2.397-5.794 3.916-10.344 4.53 1.498-.613 3.047-1.435 4.52-2.78 2.489-2.27 4.324-5.581 5.482-9.704zm-298.604 5.245h4.483c.742 1.512 1.665 2.998 2.984 4.343.86.878 1.845 1.654 2.926 2.334-3.62-.97-6.765-2.594-9.375-5.306-.43-.457-.7-.914-1.018-1.371zm-421.615 50.617a7.5 7.5 0 0 0-7.5 7.5v76.965a7.5 7.5 0 0 0 7.5 7.5h134.69a7.5 7.5 0 0 0 7.5-7.5v-76.965a7.5 7.5 0 0 0-7.5-7.5zm7.5 15h119.69v61.965h-119.69Z" style="color:#000;font-style:normal;font-variant:normal;font-weight:400;font-stretch:normal;font-size:medium;font-family:sans-serif;font-variant-ligatures:normal;font-variant-position:normal;font-variant-caps:normal;font-variant-numeric:normal;font-variant-alternates:normal;font-variant-east-asian:normal;font-feature-settings:normal;text-indent:0;text-decoration:none;text-decoration-line:none;text-decoration-style:solid;text-decoration-color:#000;letter-spacing:normal;word-spacing:normal;text-transform:none;writing-mode:lr-tb;direction:ltr;text-orientation:mixed;dominant-baseline:auto;baseline-shift:baseline;text-anchor:start;clip-rule:nonzero;display:inline;overflow:visible;visibility:visible;color-interpolation:sRGB;vector-effect:none;fill:#fff;fill-opacity:1;fill-rule:nonzero;stroke:none;stroke-width:15;stroke-linecap:round;stroke-linejoin:round;stroke-miterlimit:4;stroke-dasharray:none;stroke-dashoffset:0;stroke-opacity:1;color-rendering:auto;image-rendering:auto;shape-rendering:auto;text-rendering:auto;enable-background:accumulate;stop-color:#000" transform="matrix(1 0 0 1 175.539 -667.554)"/><path d="M388.772 675.054c-28.796 0-46.95 21.552-46.95 54.045 0 25.389 11.48 51.496 46.811 51.496 9.362 0 20.852-2.127 29.934-11.49 8.224-8.512 8.793-18.015 9.223-24.12h-23.131c-.43 13.619-9.212 19.435-18.444 19.435-21.422 0-21.422-29.077-21.422-35.182 0-21.142 6.813-38.159 23.13-38.159 14.887 0 16.166 14.468 16.596 18.015h22.412c0-20.433-15.737-34.04-38.159-34.04zm-300.274.516v224.484h76.956V675.57Zm-256.538.01v224.474h76.967V675.579Zm99.406 0v224.474h21.122c62.718 0 113.565-50.249 113.565-112.237 0-61.99-50.847-112.238-113.565-112.238zm1054.93.18v18.295h22.411V675.76zm-286.283 9.505-20.853 7.663v14.038H665.4v13.898h13.76v39.298c0 5.966 0 19.294 21.142 19.294 3.407 0 9.512-.43 16.316-2.268V763.43c-2.558.28-3.966.42-7.094.42-9.362 0-9.362-4.108-9.511-10.633v-32.354h17.025v-13.898h-17.025zm258.754 0-20.853 7.663v14.038h-13.759v13.898h13.76v39.298c0 5.966-.001 19.294 21.141 19.294 3.407 0 9.512-.43 16.317-2.268V763.43c-2.558.28-3.966.42-7.084.42-9.372 0-9.372-4.108-9.522-10.633v-32.354h17.036v-13.898h-17.036zm-393.8 19.288c-15.597 0-21.282 9.222-23.27 12.49l-.561-10.78h-20.142c.42 4.965.42 12.758.42 13.047v58.873h21.131v-41.997c0-5.525 1.278-9.072 2.557-10.91 2.268-3.418 6.385-5.535 10.922-5.535 5.395 0 8.653 2.976 10.222 6.094 1.13 2.268 1.129 4.827 1.129 7.804v44.544h21.422v-38.729c0-13.339-.42-17.026-1.989-21.422-1.848-4.966-7.802-13.479-21.84-13.479zm579.225 0c-15.608 0-21.283 9.222-23.271 12.49l-.56-10.78h-20.143c.42 4.965.42 12.758.42 13.047v58.873h21.133v-41.997c0-5.525 1.278-9.072 2.557-10.91 2.268-3.418 6.385-5.535 10.921-5.535 5.396 0 8.652 2.976 10.221 6.094 1.13 2.268 1.13 4.827 1.13 7.804v44.544h21.422v-38.729c0-13.339-.42-17.026-1.988-21.422-1.849-4.966-7.804-13.479-21.842-13.479zm-511.417.282c-18.585 0-31.354 8.513-31.354 22.421 0 14.608 12.34 18.155 18.166 19.863l13.048 3.547c8.224 2.268 9.932 4.816 9.932 8.084 0 4.256-3.547 8.503-11.07 8.503-8.794 0-11.62-5.246-11.91-9.782h-19.724c.14 3.407.57 9.084 5.246 14.04 6.534 6.814 15.327 8.802 24.55 8.802 22.26 0 32.902-12.35 32.902-24.69 0-9.782-6.095-16.446-19.144-20.003l-12.91-3.547c-6.245-1.699-9.791-2.688-9.791-7.514 0-4.396 4.256-7.095 9.932-7.095 3.267 0 9.64.57 10.21 8.513h19.154c-.56-14.328-12.48-21.142-27.237-21.142zm-159.588.007c-28.237 0-37.03 20.854-37.03 38.16 0 25.108 16.167 37.728 36.6 37.728 25.958 0 37.589-18.155 37.589-38.298 0-20.004-11.2-37.59-37.159-37.59zm581.346 0c-28.227 0-37.02 20.854-37.02 38.16 0 25.108 16.167 37.728 36.6 37.728 25.959 0 37.59-18.155 37.59-38.298 0-20.004-11.201-37.59-37.17-37.59zm-161.58.274c-9.513 0-33.483 4.546-33.483 37.17 0 11.49 2.838 20.993 9.083 28.237 6.514 7.374 14.887 9.501 24.4 9.501 8.942 0 15.326-2.267 20.422-6.663 8.233-6.955 8.943-15.608 9.223-21.134h-20.703c-.86 12.76-7.383 13.76-9.652 13.76-1.568 0-3.687-.29-5.675-2.419-4.826-5.255-5.246-18.015-5.246-21.992 0-7.793 1.129-22.84 11.06-22.84 8.094 0 8.934 10.65 9.223 13.198h20.573c-.15-19.434-15.897-26.818-29.226-26.818zm-122.708.95c-15.756-.259-20.226 8.046-22.839 13.95l-.43-13.759h-19.714c.42 4.117.99 14.468.99 17.876v54.045h20.992v-35.321c0-8.933 1.28-19.853 22.562-17.874v-18.866a46.706 46.706 0 0 0-1.561-.051zm216.761.34v71.778H1008v-71.779zm-205.7.137v44.543c0 3.547 0 13.479 4.675 19.294 3.977 5.246 11.93 9.642 21.572 9.642 13.62 0 19.004-8.222 21.132-11.35l.71 9.512h20.434a62.493 62.493 0 0 1-.57-5.255c0-1.839-.14-3.687-.42-19.144v-47.242h-21.572v36.17c0 12.2 0 22.272-13.479 22.272-11.2 0-11.201-9.502-11.201-15.747v-42.695zm-308.119 12.339c13.899 0 15.736 13.189 15.736 22.69 0 19.015-6.235 24.55-15.457 24.55-10.362 0-15.747-6.955-15.747-22.981 0-6.525.14-24.259 15.468-24.259zm581.346 0c13.899 0 15.747 13.189 15.747 22.69 0 19.015-6.245 24.55-15.458 24.55-10.351 0-15.747-6.955-15.747-22.981 0-6.525.14-24.259 15.458-24.259zM187.916 823.087v76.967h134.689v-76.967z" style="color:#000;font-style:normal;font-variant:normal;font-weight:400;font-stretch:normal;font-size:medium;font-family:sans-serif;font-variant-ligatures:normal;font-variant-position:normal;font-variant-caps:normal;font-variant-numeric:normal;font-variant-alternates:normal;font-variant-east-asian:normal;font-feature-settings:normal;text-indent:0;text-decoration:none;text-decoration-line:none;text-decoration-style:solid;text-decoration-color:#000;letter-spacing:normal;word-spacing:normal;text-transform:none;writing-mode:lr-tb;direction:ltr;text-orientation:mixed;dominant-baseline:auto;baseline-shift:baseline;text-anchor:start;clip-rule:nonzero;display:inline;overflow:visible;visibility:visible;color-interpolation:sRGB;vector-effect:none;fill:#0c2340;fill-opacity:1;fill-rule:nonzero;stroke:none;stroke-width:15;stroke-linecap:round;stroke-linejoin:round;stroke-miterlimit:4;stroke-dasharray:none;stroke-dashoffset:0;stroke-opacity:1;color-rendering:auto;image-rendering:auto;shape-rendering:auto;text-rendering:auto;enable-background:accumulate;stop-color:#000" transform="matrix(1 0 0 1 175.539 -667.554)"/></svg>