<svg xmlns="http://www.w3.org/2000/svg" width="1417" height="295" style="&#10;"><path fill="transparent" fill-rule="evenodd" d="M231 63.797v37.797l-6.648 1.139c-14.496 2.483-26.398 11.513-33.134 25.138-3.613 7.31-3.718 7.835-3.718 18.576 0 10.648.133 11.332 3.636 18.668 6.602 13.824 18.592 22.971 33.114 25.262l6.75 1.066v76.418l-2.25.433c-1.238.239 3.247.495 9.965.57 11.595.129 12.274.026 13.381-2.043.94-1.756.827-2.808-.579-5.419-1.612-2.994-1.622-3.414-.131-5.543 1.935-2.762 2.049-5.19.371-7.876-2.598-4.161 2.713-7.792 5.92-4.048 2.228 2.603 4.399 2.625 6.591.065 1.845-2.155 3.441-2.471 5.593-1.107 1.009.639 1.185 2.137.681 5.805-.844 6.133.902 8.332 5.097 6.421 2.237-1.02 2.495-1.603 1.939-4.397-1.174-5.906-1.09-6.952.653-8.074 1.352-.87 2.109-.736 3.455.609 1.478 1.479 1.552 2.196.518 5.054-1.771 4.9-1.492 6.601 1.293 7.87 2.026.922 3.13.797 5.849-.668 3.235-1.742 3.459-1.741 6.45.026 2.554 1.509 3.547 1.626 5.651.667 2.996-1.365 3.478-5.526.963-8.306-3.563-3.937 1.384-8.391 5.977-5.382 3.398 2.226 6.869.479 6.423-3.234-.47-3.916-3.135-5.114-6.696-3.011-1.613.954-3.632 1.465-4.486 1.138-2.392-.918-2.973-4.236-1.211-6.925 3.406-5.198 1.04-10.333-4.161-9.032-6.088 1.524-7.756 1.214-7.756-1.44 0-2.932 2.636-3.814 6.006-2.011 3.549 1.899 6.696-.258 6.302-4.319-.253-2.621-.785-3.239-3.009-3.496-1.485-.171-3.612.177-4.727.773-1.629.872-2.419.692-4.026-.915-3.832-3.832.721-7.555 5.449-4.457 5.294 3.468 9.777-1.977 6.262-7.606-1.644-2.632.099-5.483 3.352-5.483 1.753 0 2.48.631 2.726 2.365.184 1.301-.154 2.854-.75 3.45-1.519 1.519-1.352 3.276.486 5.114 3.771 3.77 9.031-.567 6.476-5.34-1.625-3.037-.423-6.089 2.398-6.089 3.334 0 5.272 2.622 3.745 5.068-2.707 4.334-.274 8.672 4.23 7.541 3.17-.795 4.108-3.873 2.11-6.923-2.958-4.515.483-7.765 5.484-5.179 4.27 2.208 6.855 1.874 8.192-1.06.956-2.098.844-3.093-.632-5.591-1.712-2.898-1.715-3.218-.057-6.894 2.916-6.466.29-9.208-6.632-6.924-3.47 1.145-4.171 1.105-5.599-.324-1.433-1.433-1.471-2.123-.31-5.641 1.647-4.992.141-7.566-3.919-6.695-9.238 1.982-8.922 2.009-9.638-.844-.391-1.559-.201-3.152.454-3.807 1.604-1.604 1.394-5.39-.456-8.213-3.175-4.846.622-8.785 5.621-5.833 2.374 1.403 3.306 1.483 5.519.475 2.774-1.264 2.81-1.633.904-9.317-.928-3.742 2.567-5.706 6.071-3.41 2.862 1.875 5.623 2.016 7.268.371 1.454-1.454 1.59-6.441.2-7.3-1.494-.923-1.207-4.084.5-5.5 2.071-1.719 1.876-4.252-.564-7.354-1.906-2.424-1.945-2.796-.5-4.858 1.965-2.806 1.992-5.188.077-6.777-3.481-2.889-9.362 2.057-6.519 5.482 2.059 2.481.818 5.971-2.25 6.324-3.335.384-4.562-1.92-2.788-5.235.672-1.256 1.07-3.363.883-4.683-.262-1.857-1.036-2.467-3.424-2.7-1.878-.183-3.589.306-4.373 1.25-1.632 1.967-4.432 1.991-6.042.051-1.6-1.928-4.319-1.903-8.141.073-2.801 1.448-3.191 1.436-4.95-.155-2.446-2.214-2.404-3.519.219-6.854 2.903-3.69 1.342-7.564-3.048-7.564-1.629 0-3.24.45-3.58 1-2.029 3.283-7.261-.889-5.364-4.279.805-1.439 1.868-1.62 6.376-1.091 5.126.603 5.471.5 6.591-1.956.968-2.125.885-3.044-.461-5.098-2.077-3.17-2.108-6.46-.068-7.243.866-.332 3.327-.026 5.468.681 4.743 1.565 7.229.121 6.759-3.928-.351-3.015-3.762-3.98-7.325-2.073-4.825 2.582-8.886-3.485-4.27-6.378 1.236-.775 2.694-.711 5.298.23 4.395 1.589 6.756.172 6.297-3.779-.359-3.087-3.784-3.968-7.562-1.946-2.247 1.202-2.652 1.079-4.638-1.411-2.642-3.313-4.236-3.42-7.349-.496-2.308 2.168-2.463 2.183-5.395.5-3.703-2.125-5.243-2.178-6.857-.233-1.408 1.696-5.563 2.016-6.5.5-.854-1.382-4.844-1.256-6.3.2-1.456 1.456-1.582 5.446-.2 6.3 1.476.912 1.214 4.077-.452 5.46-.807.67-2.388.908-3.561.536-1.92-.61-2.049-1.152-1.437-6.053.638-5.105.54-5.445-1.897-6.555-2.099-.957-3.031-.87-5.077.47-5.465 3.581-8.796.267-5.879-5.849 1.634-3.425 1.626-3.754-.164-7.078-1.436-2.666-1.602-3.762-.705-4.659 2.358-2.358.966-2.772-9.328-2.772H231v37.797m10.25-36.079c-.687.247-1.25 1.499-1.25 2.782s.563 2.535 1.25 2.782c1.786.64 4.75-1.095 4.75-2.782s-2.964-3.422-4.75-2.782m43.5 6.362c-3.799 2.213-1.024 8.776 3.151 7.451 2.862-.908 3.644-4.272 1.534-6.603-1.988-2.196-2.279-2.249-4.685-.848m10.821.491c-.864.865-1.571 2.183-1.571 2.929s.707 2.064 1.571 2.929c3.021 3.02 7.429 1.282 7.429-2.929s-4.408-5.949-7.429-2.929m-37.912.876c-.961 2.503.402 4.686 2.718 4.356 1.517-.217 2.123-1.017 2.123-2.803 0-2.914-3.846-4.147-4.841-1.553m13.721 1.005c-.775 2.021.378 3.548 2.679 3.548 1.404 0 1.941-.692 1.941-2.5 0-1.846-.531-2.5-2.031-2.5-1.118 0-2.283.653-2.589 1.452m37.79.718c.22 1.553.997 2.33 2.33 2.33 2.978 0 2.681-3.904-.33-4.33-1.939-.275-2.275.061-2 2m-68.78 4.256c-.91 2.371.377 4.765 2.357 4.384 2.378-.458 2.378-5.162 0-5.62-.964-.186-2.025.37-2.357 1.236m11.755 11.899c-2.396 2.887 1.643 6.926 4.53 4.53 2.043-1.695 1.239-5.296-1.263-5.653-1.148-.164-2.618.341-3.267 1.123m25.217.175c-.793 2.064.282 4.5 1.984 4.5.775 0 1.969-.675 2.654-1.5.993-1.197.993-1.803 0-3-.685-.825-1.879-1.5-2.654-1.5-.775 0-1.668.675-1.984 1.5m13.748.867c-.864 1.042-.764 1.675.42 2.658 1.911 1.586 4.044-.086 3.134-2.458-.741-1.93-2.056-2.004-3.554-.2m.168 12.755c-1.536 1.536-.467 3.878 1.77 3.878 2.457 0 3.404-1.751 1.916-3.544-1.452-1.749-2.203-1.817-3.686-.334M309.2 72.2c-2.462 2.462-.038 6.443 3.173 5.21 2.086-.8 2.118-5.007.045-5.803-2.014-.773-1.816-.809-3.218.593m.501 13.432c-.385.386-.701 1.558-.701 2.604 0 1.402.593 1.819 2.25 1.584 1.471-.209 2.25-1.008 2.25-2.306 0-1.984-2.472-3.208-3.799-1.882m12.663.861c-.346.903-.15 2.121.436 2.707 1.524 1.524 4.41.131 4.012-1.935-.443-2.302-3.647-2.858-4.448-.772M335 88.073c0 1.431.539 1.97 1.739 1.739 2.606-.502 2.897-3.812.334-3.812-1.431 0-2.073.642-2.073 2.073m-44.616 3.369c-.938 2.443.044 5.017 2.061 5.405 2.643.509 4.782-2.554 3.481-4.985-1.18-2.204-4.753-2.475-5.542-.42m55.979 8.055c-.346.901-.167 2.099.398 2.664 1.63 1.63 4.739.531 4.739-1.675 0-2.543-4.228-3.358-5.137-.989m-43.645 4.753c-.625 1.745 1.08 4.75 2.695 4.75 1.989 0 3.711-2.512 2.997-4.373-.732-1.909-5.04-2.195-5.692-.377m43.322 6.202c-.663.799-.926 2.332-.585 3.408.925 2.913 3.616 3.513 5.829 1.301 1.569-1.57 1.711-2.302.781-4.039-1.31-2.449-4.275-2.779-6.025-.67m-17.047 7.056c-1.767 2.129-.433 4.694 2.242 4.312 2.884-.411 3.467-3.374.93-4.732-1.476-.79-2.253-.687-3.172.42m17.396 5.922c-.996 2.595.399 4.739 2.857 4.39 1.652-.235 2.254-.987 2.254-2.82 0-1.833-.602-2.585-2.254-2.82-1.353-.192-2.496.308-2.857 1.25m-31.08 7.206c-1.473 3.839 3.84 6.66 6.024 3.198.763-1.209.69-2.101-.263-3.25-1.711-2.061-4.961-2.032-5.761.052m18.737 4.808c-2.701 3.255 1.769 7.17 4.765 4.174 1.273-1.274 1.404-2.055.565-3.387-1.46-2.318-3.775-2.66-5.33-.787m-30.683 8.053c-.346.901-.167 2.099.398 2.664 1.63 1.63 4.739.531 4.739-1.675 0-2.543-4.228-3.358-5.137-.989m17.677 4.955c-2.082 2.509-.845 5.048 2.46 5.048 2.066 0 3.078-.548 3.319-1.798.397-2.062-1.467-4.702-3.319-4.702-.69 0-1.797.653-2.46 1.452m-17.082 7.098c-1.058 1.275-1.016 1.82.235 3.072 1.362 1.361 1.697 1.345 3.199-.157 1.297-1.297 1.415-1.992.52-3.071-1.488-1.793-2.365-1.758-3.954.156m30.088 5.895c-.66.795-1.052 2.482-.873 3.75.422 2.973 4.657 3.759 6.521 1.209 1.679-2.296 1.644-2.923-.265-4.833-1.959-1.958-3.826-2.002-5.383-.126m-16.985 5.517c-1.91 1.181-.835 4.538 1.453 4.538 1.262 0 2.096-.773 2.289-2.123.33-2.315-1.741-3.651-3.742-2.415m29.084 7.363c-2.396 2.887 1.643 6.926 4.53 4.53.782-.649 1.287-2.119 1.123-3.267-.357-2.502-3.958-3.306-5.653-1.263m-17.782 7.172c-.346.901-.167 2.099.398 2.664 1.63 1.63 4.739.531 4.739-1.675 0-2.543-4.228-3.358-5.137-.989m17.711 5.365c-1.281 2.393.824 5.5 3.385 4.997 2.802-.551 4.195-3.366 2.611-5.275-1.776-2.139-4.777-2-5.996.278m-55.633 7.234c-.882 1.426 2.037 4.345 3.463 3.463.603-.372 1.096-1.55 1.096-2.618 0-2.124-3.382-2.751-4.559-.845m43.226 3.571c-1.189 1.188-.706 5.056.785 6.293 3.269 2.714 8.222-2.239 5.508-5.508-1.237-1.491-5.105-1.974-6.293-.785m14.583 1.036c-2.066.766-1.498 4.297.691 4.297 1.068 0 2.246-.493 2.618-1.096.86-1.39-1.649-3.816-3.309-3.201m-38.583 12.964c-1.465 1.465-.622 4.333 1.274 4.333 2.356 0 3.274-1.275 2.455-3.41-.626-1.633-2.545-2.108-3.729-.923m-2.008 13.779c-1.246 3.246 1.649 6.141 4.895 4.895.985-.378 1.443-1.558 1.25-3.219-.23-1.988-.938-2.696-2.926-2.926-1.661-.193-2.841.265-3.219 1.25M291 233c0 1.333.667 2 2 2s2-.667 2-2-.667-2-2-2-2 .667-2 2m.25 10.662c-1.751.707-1.563 4.281.263 4.981 2.423.93 4.639-1.491 3.431-3.748-1.041-1.944-1.528-2.107-3.694-1.233m-33.68 5.542c-1.315 1.877-1.343 2.506-.187 4.25 1.767 2.666 3.976 3.044 5.996 1.025 2.042-2.043 2.058-3.899.05-5.908-2.169-2.168-4.039-1.966-5.859.633m49.814.238c-1.156 3.012.065 5.058 3.021 5.058 3.585 0 5.554-2.64 3.665-4.916-1.643-1.979-5.946-2.071-6.686-.142m-66.391 7.066c-.669.807-.956 2.147-.636 2.979.764 1.993 4.263 1.945 5.036-.069.844-2.199.834-2.226-1.288-3.362-1.405-.752-2.21-.635-3.112.452m18.068 5.454c-1.91 1.181-.835 4.538 1.453 4.538 1.262 0 2.096-.773 2.289-2.123.33-2.315-1.741-3.651-3.742-2.415m24.598.484c-1.045 2.722.404 4.684 3.219 4.358 2.049-.238 2.622-.85 2.622-2.804 0-1.954-.573-2.566-2.622-2.804-1.661-.193-2.841.265-3.219 1.25m12 0c-1.045 2.722.404 4.684 3.219 4.358 2.049-.238 2.622-.85 2.622-2.804 0-1.954-.573-2.566-2.622-2.804-1.661-.193-2.841.265-3.219 1.25m14.042.186c-1.574 1.575-.64 3.498 1.549 3.188 1.238-.176 2.25-.989 2.25-1.806 0-1.589-2.634-2.547-3.799-1.382"/><path fill="#ffffff" fill-rule="evenodd" d="M220.11 27.72c-1.725 1.405-2.519 3.888-3.766 11.78-1.22 7.726-2.082 10.466-3.787 12.052-2.558 2.377-12.823 4.964-14.937 3.763-.789-.448-3.988-3.965-7.108-7.815-9.263-11.431-9.258-11.43-20.562-4.911-5.584 3.221-8.138 5.31-8.563 7.005-.389 1.55.709 5.995 3.069 12.418 2.08 5.665 3.412 10.827 3.071 11.903C166.533 77.047 158.301 84 155.586 84c-1.352 0-5.965-1.35-10.249-3-12.472-4.802-13.868-4.407-19.323 5.475-5.915 10.715-5.655 12.01 3.956 19.672 4.383 3.494 8.255 7.358 8.604 8.585.817 2.876-1.3 11.715-3.428 14.312-1.214 1.483-4.137 2.423-11.146 3.586-14.051 2.332-14 2.279-14 14.738 0 8.577.296 10.582 1.75 11.862.963.846 6.25 2.28 11.75 3.186 7.286 1.199 10.447 2.176 11.646 3.597 2.086 2.474 4.245 11.32 3.479 14.255-.321 1.227-4.192 5.113-8.604 8.634-7.038 5.618-8.021 6.797-8.021 9.618 0 4.225 7.575 17.368 10.693 18.554 1.742.662 4.736.011 11.935-2.595 5.286-1.914 10.441-3.479 11.456-3.479 2.378 0 8.574 5.439 10.551 9.26 1.455 2.816 1.347 3.457-2.167 12.825-2.466 6.575-3.489 10.693-3.071 12.361.725 2.887 14.522 11.506 18.468 11.536 2.431.019 5.637-2.989 12.832-12.042 2.092-2.631 4.589-5.001 5.55-5.268 2.565-.71 12.992 2.202 14.864 4.151.955.993 2.262 5.725 3.206 11.605 1.98 12.336 3.37 14.146 10.088 13.138l4.595-.689v-76.434l-6.75-1.066c-14.522-2.291-26.512-11.438-33.114-25.262-3.503-7.336-3.636-8.02-3.636-18.668 0-10.741.105-11.266 3.718-18.576 6.736-13.625 18.638-22.655 33.134-25.138l6.648-1.139-.001-37.547-.001-37.547-4.351-.28c-3.012-.194-5.024.268-6.537 1.5m31.042.408c-1.135 1.818-1.068 2.613.465 5.459 1.702 3.16 1.706 3.513.08 6.922-2.917 6.116.414 9.43 5.879 5.849 2.046-1.34 2.978-1.427 5.077-.47 2.437 1.11 2.535 1.45 1.897 6.555-.612 4.901-.483 5.443 1.437 6.053 1.173.372 2.754.134 3.561-.536 1.666-1.383 1.928-4.548.452-5.46-1.382-.854-1.256-4.844.2-6.3 1.456-1.456 5.446-1.582 6.3-.2.937 1.516 5.092 1.196 6.5-.5 1.614-1.945 3.154-1.892 6.857.233 2.932 1.683 3.087 1.668 5.395-.5 3.113-2.924 4.707-2.817 7.349.496 1.986 2.49 2.391 2.613 4.638 1.411 3.778-2.022 7.203-1.141 7.562 1.946.459 3.951-1.902 5.368-6.297 3.779-2.604-.941-4.062-1.005-5.298-.23-4.616 2.893-.555 8.96 4.27 6.378 3.563-1.907 6.974-.942 7.325 2.073.47 4.049-2.016 5.493-6.759 3.928-2.141-.707-4.602-1.013-5.468-.681-2.04.783-2.009 4.073.068 7.243 1.346 2.054 1.429 2.973.461 5.098-1.12 2.458-1.463 2.559-6.605 1.955-4.582-.539-5.571-.361-6.376 1.142-.605 1.132-.601 2.409.012 3.505 1.052 1.878 4.376 2.327 5.366.724.34-.55 1.951-1 3.58-1 4.39 0 5.951 3.874 3.048 7.564-2.623 3.335-2.665 4.64-.219 6.854 1.759 1.591 2.149 1.603 4.95.155 3.822-1.976 6.541-2.001 8.141-.073 1.61 1.94 4.41 1.916 6.042-.051.784-.944 2.495-1.433 4.373-1.25 2.388.233 3.162.843 3.424 2.7.187 1.32-.211 3.427-.883 4.683-1.774 3.315-.547 5.619 2.788 5.235 3.068-.353 4.309-3.843 2.25-6.324-2.843-3.425 3.038-8.371 6.519-5.482 1.915 1.589 1.888 3.971-.077 6.777-1.445 2.062-1.406 2.434.5 4.858 2.44 3.102 2.635 5.635.564 7.354-1.707 1.416-1.994 4.577-.5 5.5 1.39.859 1.254 5.846-.2 7.3-1.645 1.645-4.406 1.504-7.268-.371-3.504-2.296-6.999-.332-6.071 3.41 1.906 7.684 1.87 8.053-.904 9.317-2.213 1.008-3.145.928-5.519-.475-4.999-2.952-8.796.987-5.621 5.833 1.85 2.823 2.06 6.609.456 8.213-.655.655-.845 2.248-.454 3.807.574 2.288 1.068 2.596 3.377 2.109 8.519-1.795 8.828-1.801 10.16-.196 1.118 1.348 1.122 2.288.02 5.626-1.161 3.518-1.123 4.208.31 5.641 1.428 1.429 2.129 1.469 5.599.324 6.922-2.284 9.548.458 6.632 6.924-1.658 3.676-1.655 3.996.057 6.894 1.476 2.498 1.588 3.493.632 5.591-1.337 2.934-3.922 3.268-8.192 1.06-5.001-2.586-8.442.664-5.484 5.179 1.998 3.05 1.06 6.128-2.11 6.923-4.504 1.131-6.937-3.207-4.23-7.541 1.527-2.446-.411-5.068-3.745-5.068-2.845 0-3.926 2.851-2.373 6.259 2.272 4.986-2.717 8.954-6.501 5.17-1.838-1.838-2.005-3.595-.486-5.114.596-.596.934-2.149.75-3.45-.246-1.734-.973-2.365-2.726-2.365-3.253 0-4.996 2.851-3.352 5.483 3.515 5.629-.968 11.074-6.262 7.606-4.728-3.098-9.281.625-5.449 4.457 1.607 1.607 2.397 1.787 4.026.915 1.115-.596 3.242-.944 4.727-.773 2.224.257 2.756.875 3.009 3.496.394 4.061-2.753 6.218-6.302 4.319-3.37-1.803-6.006-.921-6.006 2.011 0 2.654 1.668 2.964 7.756 1.44 5.201-1.301 7.567 3.834 4.161 9.032-1.762 2.689-1.181 6.007 1.211 6.925.854.327 2.873-.184 4.486-1.138 3.561-2.103 6.226-.905 6.696 3.011.446 3.713-3.025 5.46-6.423 3.234-4.593-3.009-9.54 1.445-5.977 5.382 2.492 2.754 2.034 6.941-.907 8.281-2.026.922-3.13.797-5.849-.668-3.235-1.742-3.459-1.741-6.45.026-2.554 1.509-3.547 1.626-5.651.667-2.84-1.294-3.127-2.976-1.349-7.895 1.034-2.858.96-3.575-.518-5.054-1.346-1.345-2.103-1.479-3.455-.609-1.743 1.122-1.827 2.168-.653 8.074.556 2.794.298 3.377-1.939 4.397-4.195 1.911-5.941-.288-5.097-6.421.504-3.668.328-5.166-.681-5.805-2.152-1.364-3.748-1.048-5.593 1.107-2.192 2.56-4.363 2.538-6.591-.065-3.207-3.744-8.518-.113-5.92 4.048 1.678 2.686 1.564 5.114-.371 7.876-1.491 2.129-1.481 2.549.131 5.543 1.406 2.611 1.519 3.663.579 5.419L250.93 269h118.881c65.385 0 123.001-.292 128.035-.65l9.154-.649V27.299l-9.154-.649c-5.034-.358-62.301-.65-127.259-.65H252.481l-1.329 2.128m-9.902-.41c-.687.247-1.25 1.499-1.25 2.782s.563 2.535 1.25 2.782c1.786.64 4.75-1.095 4.75-2.782s-2.964-3.422-4.75-2.782m434.417 2.949c-.367.366-.667 2.841-.667 5.5V41h-21v15h3.107c2.57 0 2.981.302 2.378 1.75-6.684 16.044 3.841 34.19 20.85 35.945 8.705.899 14.123-1.09 20.817-7.642 4.175-4.086 5.989-6.739 6.864-10.042 1.158-4.369.888-13.219-.541-17.761-.611-1.941-.348-2.25 1.908-2.25 2.59 0 2.617-.078 2.617-7.5V41h-21V30h-7.333c-4.034 0-7.634.3-8 .667M1015 36.5V42h-23v16h6.5v8.828c0 8.079.257 9.247 3.03 13.75 2.056 3.342 4.695 5.885 8.216 7.922 3.075 1.779 5.201 3.712 5.221 4.75.03 1.579-1.24 1.75-12.967 1.75h-13v17h68v21h18V33.922l-8.75.289-8.75.289-.265 30.25-.264 30.25h-12.486c-11.455 0-12.485-.152-12.485-1.839 0-1.012 1.07-2.327 2.377-2.923 4.001-1.823 9.633-7.337 11.767-11.521 2.491-4.883 3.485-13.474 2.038-17.624-1.069-3.068-1.05-3.093 2.37-3.093H1054V42h-21V31h-18v5.5m104.005-2.816c-6.573 2.407-15.212 11.412-17.47 18.21-3.953 11.902.036 25.553 9.701 33.196 6.079 4.808 10.692 6.359 18.764 6.308 16.646-.104 29.309-12.995 29.405-29.934.066-11.721-5.748-20.999-16.683-26.624-5.629-2.895-17.4-3.469-23.717-1.156m-834.255.396c-3.799 2.213-1.024 8.776 3.151 7.451 2.862-.908 3.644-4.272 1.534-6.603-1.988-2.196-2.279-2.249-4.685-.848m10.821.491c-.864.865-1.571 2.183-1.571 2.929s.707 2.064 1.571 2.929c3.021 3.02 7.429 1.282 7.429-2.929s-4.408-5.949-7.429-2.929m-37.912.876c-.961 2.503.402 4.686 2.718 4.356 1.517-.217 2.123-1.017 2.123-2.803 0-2.914-3.846-4.147-4.841-1.553M596 62v28h-37V59.053l14.75-.276 14.75-.277.29-8.25.291-8.25H542v65h54v26h18v-25.5c0-24.471.077-25.5 1.918-25.5 5.201 0 5.082-.612 5.082 26.107V133h18V34h-18v32h-7V34h-18v28m127.667-27.333c-.367.366-.667 13.866-.667 30V94h18V65h18V48h-18V34h-8.333c-4.584 0-8.634.3-9 .667m66.145 7.691c-.725 13.815-6.925 23.05-22.586 33.642-2.846 1.925-5.186 3.748-5.2 4.05-.05 1.055 10.141 11.95 11.177 11.95 1.828 0 13.802-9.049 19.454-14.7 6.138-6.138 5.457-6.19 13.751 1.052 3.653 3.19 3.77 3.457 1.795 4.084-1.162.368-4.154 2.94-6.648 5.714-9.748 10.842-9.978 26.407-.548 37.12 5.855 6.652 12.649 9.732 21.439 9.72 9.045-.012 15.547-2.904 21.347-9.492 6.426-7.301 7.207-11.22 7.207-36.18V68h18.081l-.291-8.25-.29-8.25-8.75-.289-8.75-.289V34h-18v44.186l-4.985-4.173c-2.741-2.295-8.312-7.282-12.38-11.08l-7.396-6.907.522-11.013.522-11.013h-19.032l-.439 8.358M892 42.5V51h45v26h-14V60.922l-8.75.289-8.75.289-.292 7.725-.291 7.725-15.709.275-15.708.275-.289 8.75-.289 8.75h26.917l-1.021 3.698c-1.422 5.149-.576 16.069 1.591 20.545 2.304 4.759 8.518 10.995 13.348 13.396 5.201 2.586 20.305 2.612 25.046.044 4.821-2.611 11.094-9.243 13.264-14.022 2.093-4.61 2.641-16.67.958-21.096L952.05 95h22.028l-.289-8.75-.289-8.75-9.75-.286-9.75-.286V34h-62v8.5m278 22V95h-71v18h71v21h18V34h-18v30.5m78.978-25.25c-.025 5.924-2.423 11.999-7.037 17.824-3.271 4.131-16.035 14.133-22.208 17.403-2.053 1.088-3.731 2.213-3.729 2.5.003.288 2.51 3.331 5.571 6.762l5.566 6.24 3.179-1.634c6.041-3.104 15.2-9.744 20.868-15.128l5.688-5.403 6.812 5.434c7.604 6.067 13.387 10.079 20.98 14.556l5.117 3.017 5.107-6.374c2.81-3.506 5.095-6.728 5.08-7.16-.016-.433-4.403-3.575-9.75-6.982s-12.746-8.717-16.442-11.8l-6.72-5.606.621-9.45.621-9.449H1249l-.022 5.25M271.38 36.452c-.775 2.021.378 3.548 2.679 3.548 1.404 0 1.941-.692 1.941-2.5 0-1.846-.531-2.5-2.031-2.5-1.118 0-2.283.653-2.589 1.452m37.79.718c.22 1.553.997 2.33 2.33 2.33 2.978 0 2.681-3.904-.33-4.33-1.939-.275-2.275.061-2 2m-68.78 4.256c-.91 2.371.377 4.765 2.357 4.384 2.378-.458 2.378-5.162 0-5.62-.964-.186-2.025.37-2.357 1.236M1123 51.194c-4.1 2.778-6.69 8.922-5.596 13.279.393 1.565 2.217 4.348 4.055 6.186 2.714 2.714 4.119 3.341 7.491 3.341 8.16 0 13.05-4.858 13.05-12.965 0-3.2-.698-4.827-3.284-7.648-4.431-4.834-10.555-5.689-15.716-2.193m-870.855 2.131c-2.396 2.887 1.643 6.926 4.53 4.53 2.043-1.695 1.239-5.296-1.263-5.653-1.148-.164-2.618.341-3.267 1.123m25.217.175c-.793 2.064.282 4.5 1.984 4.5.775 0 1.969-.675 2.654-1.5.993-1.197.993-1.803 0-3-.685-.825-1.879-1.5-2.654-1.5-.775 0-1.668.675-1.984 1.5m13.748.867c-.864 1.042-.764 1.675.42 2.658 1.911 1.586 4.044-.086 3.134-2.458-.741-1.93-2.056-2.004-3.554-.2m385.813 7.556c-3.263 3.263-3.715 6.644-1.47 10.986 3.233 6.253 12.896 6.185 16.153-.114 4.985-9.64-7.023-18.532-14.683-10.872m340.532-.468c-5.292 5.291-1.595 14.545 5.811 14.545 5.506 0 9.642-5.247 8.312-10.544-1.586-6.322-9.548-8.577-14.123-4.001m-726.177 5.667c-1.536 1.536-.467 3.878 1.77 3.878 2.457 0 3.404-1.751 1.916-3.544-1.452-1.749-2.203-1.817-3.686-.334M309.2 72.2c-2.462 2.462-.038 6.443 3.173 5.21 2.086-.8 2.118-5.007.045-5.803-2.014-.773-1.816-.809-3.218.593m.501 13.432c-.385.386-.701 1.558-.701 2.604 0 1.402.593 1.819 2.25 1.584 1.471-.209 2.25-1.008 2.25-2.306 0-1.984-2.472-3.208-3.799-1.882m12.663.861c-.346.903-.15 2.121.436 2.707 1.524 1.524 4.41.131 4.012-1.935-.443-2.302-3.647-2.858-4.448-.772M335 88.073c0 1.431.539 1.97 1.739 1.739 2.606-.502 2.897-3.812.334-3.812-1.431 0-2.073.642-2.073 2.073m914 8.427v8.5h-41v17h100v-17h-41V88h-18v8.5m-958.616-5.058c-.938 2.443.044 5.017 2.061 5.405 2.643.509 4.782-2.554 3.481-4.985-1.18-2.204-4.753-2.475-5.542-.42m527.004 4.485c-3.878 1.665-6.388 5.981-6.388 10.985 0 5.261 1.786 8.409 6.011 10.594 8.275 4.279 16.989-1.34 16.989-10.955 0-6.357-3.816-10.594-10.032-11.139-2.458-.216-5.418.016-6.58.515m102.368.828c-6.452 4-7.316 13.146-1.767 18.695 2.58 2.58 3.814 3.05 8.011 3.05 4.213 0 5.428-.467 8.055-3.093 7.867-7.867 2.701-20.472-8.352-20.38-1.762.014-4.438.792-5.947 1.728m-573.393 2.742c-.346.901-.167 2.099.398 2.664 1.63 1.63 4.739.531 4.739-1.675 0-2.543-4.228-3.358-5.137-.989M682 115.5V133h59v-17h-42V98h-17v17.5m-379.282-11.25c-.625 1.745 1.08 4.75 2.695 4.75 1.989 0 3.711-2.512 2.997-4.373-.732-1.909-5.04-2.195-5.692-.377m43.322 6.202c-.663.799-.926 2.332-.585 3.408.925 2.913 3.616 3.513 5.829 1.301 1.569-1.57 1.711-2.302.781-4.039-1.31-2.449-4.275-2.779-6.025-.67m-17.047 7.056c-1.767 2.129-.433 4.694 2.242 4.312 2.884-.411 3.467-3.374.93-4.732-1.476-.79-2.253-.687-3.172.42m17.396 5.922c-.996 2.595.399 4.739 2.857 4.39 1.652-.235 2.254-.987 2.254-2.82 0-1.833-.602-2.585-2.254-2.82-1.353-.192-2.496.308-2.857 1.25m-31.08 7.206c-1.473 3.839 3.84 6.66 6.024 3.198.763-1.209.69-2.101-.263-3.25-1.711-2.061-4.961-2.032-5.761.052m18.737 4.808c-2.701 3.255 1.769 7.17 4.765 4.174 1.273-1.274 1.404-2.055.565-3.387-1.46-2.318-3.775-2.66-5.33-.787m-30.683 8.053c-.346.901-.167 2.099.398 2.664 1.63 1.63 4.739.531 4.739-1.675 0-2.543-4.228-3.358-5.137-.989m17.677 4.955c-2.082 2.509-.845 5.048 2.46 5.048 2.066 0 3.078-.548 3.319-1.798.397-2.062-1.467-4.702-3.319-4.702-.69 0-1.797.653-2.46 1.452m-17.082 7.098c-1.058 1.275-1.016 1.82.235 3.072 1.362 1.361 1.697 1.345 3.199-.157 1.297-1.297 1.415-1.992.52-3.071-1.488-1.793-2.365-1.758-3.954.156m311.282 50.2.26 46.75 8.75.289 8.75.289V204h16v-15h-16v-30h-18.02l.26 46.75M728 166.5v7.5l-7.25.001h-7.25l.347-5 .346-5.001H660v15h16c12.488 0 16 .286 16 1.304 0 2.087-5.387 10.003-9.613 14.126-6.484 6.326-17.249 12.896-26.216 16l-3.387 1.173 5.208 5.698c2.865 3.135 5.93 5.699 6.812 5.699.882 0 5.743-2.014 10.802-4.475 15.666-7.621 26.896-18.15 33.047-30.984 3.279-6.842 3.347-6.909 3.347-3.263V188h16v8h-19v14h19v14h18v-65h-18v7.5m110 0v7.5h-11v-11h-60v15h9v28h-11v15.318l27.25-.671c14.987-.369 30.962-.955 35.5-1.302l8.25-.631v-7.357c0-4.238.424-7.357 1-7.357.597 0 1 3.872 1 9.617 0 9.522-.022 9.609-2.25 8.888-1.237-.401-5.495-.952-9.461-1.224-15.49-1.065-27.642 7.321-30.509 21.054-5.005 23.978 29.12 39.709 48.717 22.458 6.069-5.342 8.459-10.51 8.459-18.293 0-7.781-2.39-12.951-8.453-18.289L839.718 224H856v-65h-18v7.5m105.24 39.25.26 46.75 8.75.289 8.75.289V204h16v-15h-16v-30h-18.02l.26 46.75m109 0 .26 46.75 8.75.289 8.75.289V204h16v-15h-16v-30h-18.02l.26 46.75M1166 170v11h-14.822l-2.157-4.456c-2.427-5.015-7.048-9.453-13.299-12.776-5.88-3.125-19.147-3.204-25.773-.153-10.444 4.81-16.949 14.197-16.949 24.456 0 11.379 5.186 19.867 15.196 24.869 5.333 2.665 7.18 3.06 14.304 3.06 7.157 0 8.961-.39 14.419-3.117 6.295-3.146 10.463-7.561 13.064-13.842 1.242-2.999 1.361-3.041 8.638-3.041H1166v23h18v-60h-18v11m105 29v40h18v-35.916l7.75-.292 7.75-.292.294-7.25.294-7.25H1289v-29h-18v40m-936.954-37.555c-.66.795-1.052 2.482-.873 3.75.422 2.973 4.657 3.759 6.521 1.209 1.679-2.296 1.644-2.923-.265-4.833-1.959-1.958-3.826-2.002-5.383-.126m672.621 2.222c-.367.366-.667 4.619-.667 9.45 0 19.757-5.299 30.421-20.968 42.2l-5.866 4.41 5.722 5.663 5.723 5.663 6.945-4.897c3.819-2.693 9.538-7.628 12.708-10.967l5.764-6.07 2.111 2.856c2.544 3.44 13.209 12.383 18.608 15.602l3.896 2.323 5.124-5.821 5.124-5.821-5.404-3.723c-14.696-10.121-20.429-22.103-20.47-42.785L1025 163h-8.833c-4.859 0-9.134.3-9.5.667M1205 192v29l14.25-.023c13.417-.021 32.701-1.134 44.5-2.569l5.25-.638v-7.404c0-7.168-.072-7.387-2.25-6.876-4.135.97-25.141 2.493-34.5 2.501L1223 206v-28h34v-15h-52v29m-655.794-19.75.294 7.25 9.888.288 9.889.288-.607 5.805c-.333 3.193-1.513 7.919-2.62 10.503-2.382 5.557-10.242 14.213-18.395 20.259l-5.845 4.335 5.517 5.741 5.517 5.741 6.914-4.724c3.803-2.599 9.658-7.583 13.013-11.076l6.098-6.35 5.815 5.91c3.199 3.251 8.869 7.951 12.602 10.446l6.785 4.535 4.215-4.747c6.356-7.16 6.397-6.71-1.101-12.181-11.601-8.464-17.166-17.11-18.763-29.15l-.68-5.123H608v-15h-59.088l.294 7.25M880 172.5v7.5h16c12.139 0 15.998.302 15.99 1.25-.005.688-1.125 3.646-2.488 6.575-4.61 9.902-20.208 23.691-33.004 29.176l-4.851 2.079 5.393 5.46c2.965 3.003 5.982 5.46 6.704 5.46 2.173 0 13.35-5.948 19.884-10.581 16.882-11.972 29.26-33.549 29.355-51.169L933 165h-53v7.5m-562.939-5.538c-1.91 1.181-.835 4.538 1.453 4.538 1.262 0 2.096-.773 2.289-2.123.33-2.315-1.741-3.651-3.742-2.415m29.084 7.363c-2.396 2.887 1.643 6.926 4.53 4.53.782-.649 1.287-2.119 1.123-3.267-.357-2.502-3.958-3.306-5.653-1.263m771.154 3.635c-7.884 4.806-8.367 16.489-.885 21.392 7.452 4.882 17.595-1.465 17.582-11.003-.007-5.659-6.353-12.356-11.696-12.345-.99.002-3.241.882-5.001 1.956M793 192v14h7v-10.875c0-5.981.281-12.281.625-14 .619-3.096.587-3.125-3.5-3.125H793v14m24.804-.498-.304 13.501 5.5-.133c4.725-.114 5.007-.22 2-.752l-3.5-.618v-13l8.25-.29c4.538-.16 8.25-.704 8.25-1.21s-3.712-1.05-8.25-1.21l-8.25-.29-.305-4.75c-.208-3.244-.746-4.75-1.696-4.75-1.104 0-1.453 2.782-1.695 13.502m-489.441-10.005c-.346.901-.167 2.099.398 2.664 1.63 1.63 4.739.531 4.739-1.675 0-2.543-4.228-3.358-5.137-.989m17.711 5.365c-1.281 2.393.824 5.5 3.385 4.997 2.802-.551 4.195-3.366 2.611-5.275-1.776-2.139-4.777-2-5.996.278m-55.633 7.234c-.882 1.426 2.037 4.345 3.463 3.463.603-.372 1.096-1.55 1.096-2.618 0-2.124-3.382-2.751-4.559-.845m43.226 3.571c-1.189 1.188-.706 5.056.785 6.293 3.269 2.714 8.222-2.239 5.508-5.508-1.237-1.491-5.105-1.974-6.293-.785m14.583 1.036c-2.066.766-1.498 4.297.691 4.297 1.068 0 2.246-.493 2.618-1.096.86-1.39-1.649-3.816-3.309-3.201m-38.583 12.964c-1.465 1.465-.622 4.333 1.274 4.333 2.356 0 3.274-1.275 2.455-3.41-.626-1.633-2.545-2.108-3.729-.923M1119 244v23h64v-46h-18v9h-28v-9h-18v23m-811.341-18.554c-1.246 3.246 1.649 6.141 4.895 4.895.985-.378 1.443-1.558 1.25-3.219-.23-1.988-.938-2.696-2.926-2.926-1.661-.193-2.841.265-3.219 1.25M680 233.5v7.5h47v27h18v-42h-65v7.5m544 15V267h67v-15h-49v-22h-18v18.5M291 233c0 1.333.667 2 2 2s2-.667 2-2-.667-2-2-2-2 .667-2 2m525.766 5.918c-2.804 2.505-3.266 3.578-3.266 7.582s.462 5.077 3.266 7.582c7.267 6.493 18.16 1.872 18.212-7.726.017-3.212-.631-4.844-2.879-7.25-2.429-2.601-3.647-3.106-7.484-3.106-3.651 0-5.248.594-7.849 2.918m-525.516 4.744c-1.751.707-1.563 4.281.263 4.981 2.423.93 4.639-1.491 3.431-3.748-1.041-1.944-1.528-2.107-3.694-1.233M1137 248v4h28v-8h-28v4m-879.43 1.204c-1.315 1.877-1.343 2.506-.187 4.25 1.767 2.666 3.976 3.044 5.996 1.025 2.042-2.043 2.058-3.899.05-5.908-2.169-2.168-4.039-1.966-5.859.633m49.814.238c-1.156 3.012.065 5.058 3.021 5.058 3.585 0 5.554-2.64 3.665-4.916-1.643-1.979-5.946-2.071-6.686-.142m-66.391 7.066c-.669.807-.956 2.147-.636 2.979.764 1.993 4.263 1.945 5.036-.069.844-2.199.834-2.226-1.288-3.362-1.405-.752-2.21-.635-3.112.452m18.068 5.454c-1.91 1.181-.835 4.538 1.453 4.538 1.262 0 2.096-.773 2.289-2.123.33-2.315-1.741-3.651-3.742-2.415m24.598.484c-1.045 2.722.404 4.684 3.219 4.358 2.049-.238 2.622-.85 2.622-2.804 0-1.954-.573-2.566-2.622-2.804-1.661-.193-2.841.265-3.219 1.25m12 0c-1.045 2.722.404 4.684 3.219 4.358 2.049-.238 2.622-.85 2.622-2.804 0-1.954-.573-2.566-2.622-2.804-1.661-.193-2.841.265-3.219 1.25m14.042.186c-1.574 1.575-.64 3.498 1.549 3.188 1.238-.176 2.25-.989 2.25-1.806 0-1.589-2.634-2.547-3.799-1.382"/></svg>