<svg xmlns="http://www.w3.org/2000/svg"
 width="30" height="30" viewBox="-35 -35 600 600"
 preserveAspectRatio="xMidYMid meet">

<g transform="translate(0.000000,512.000000) scale(0.100000,-0.100000)"
fill="#7b5d44" stroke="none">
<path d="M950 5106 c-90 -19 -178 -57 -259 -110 -72 -48 -235 -210 -312 -311
-170 -222 -287 -489 -345 -790 -24 -122 -27 -165 -28 -340 -1 -395 62 -608
307 -1040 412 -728 1370 -1701 2117 -2153 271 -164 513 -270 715 -316 517
-117 1118 7 1520 312 359 273 499 541 441 844 -27 139 -91 261 -191 363 -63
64 -592 497 -662 542 -131 83 -287 126 -463 126 -244 1 -469 -89 -620 -247
-19 -20 -51 -41 -71 -46 -82 -22 -65 -36 -617 514 -282 281 -520 523 -528 538
-8 15 -14 47 -14 71 0 39 8 53 74 136 142 178 206 358 206 584 0 145 -35 281
-106 418 -60 113 -522 692 -609 762 -69 56 -176 111 -255 132 -80 22 -223 27
-300 11z m215 -540 c39 -25 457 -560 495 -632 33 -63 35 -73 35 -158 -1 -81
-4 -98 -32 -156 -17 -36 -54 -92 -83 -125 -114 -133 -165 -267 -164 -440 0
-162 42 -282 145 -410 82 -103 1079 -1090 1140 -1128 125 -79 255 -113 403
-104 159 9 283 65 423 189 101 90 156 111 278 106 70 -3 100 -9 138 -29 26
-13 175 -128 331 -256 301 -247 319 -266 319 -348 0 -59 -26 -101 -122 -193
-241 -234 -548 -352 -915 -353 -254 0 -405 38 -643 163 -158 82 -285 160 -428
261 -674 477 -1449 1308 -1747 1875 -22 42 -55 105 -74 139 -212 379 -176 949
84 1335 53 79 184 224 235 260 54 39 127 40 182 4z"/>
</g>
</svg>
