<svg xmlns="http://www.w3.org/2000/svg" xmlns:xlink="http://www.w3.org/1999/xlink" width="24" height="24" viewBox="0 0 38 38.905">
  <defs>
    <clipPath id="clip-path">
      <rect id="사각형_905" data-name="사각형 905" width="38" height="38.905" transform="translate(0 0)" fill="none"/>
    </clipPath>
  </defs>
  <g id="ico_chat" clip-path="url(#clip-path)">
    <path id="패스_4616" data-name="패스 4616" d="M275.679,558.466a2.625,2.625,0,1,0,2.625,2.625,2.625,2.625,0,0,0-2.625-2.625" transform="translate(-264.877 -541.741)" fill="#03e4fb"/>
    <path id="패스_4617" data-name="패스 4617" d="M549.435,558.466a2.625,2.625,0,1,0,2.625,2.625,2.625,2.625,0,0,0-2.625-2.625" transform="translate(-530.434 -541.741)" fill="#03e4fb"/>
    <path id="패스_4618" data-name="패스 4618" d="M823.19,558.466a2.625,2.625,0,1,0,2.625,2.625,2.625,2.625,0,0,0-2.625-2.625" transform="translate(-795.992 -541.741)" fill="#03e4fb"/>
    <path id="패스_4619" data-name="패스 4619" d="M36.517,11.624A18.985,18.985,0,0,0,19-.005h-.065A19,19,0,0,0,3.289,29.682a1.207,1.207,0,0,1,.2.78L2.776,38.9l7.981-2.449a1.228,1.228,0,0,1,.838.046A19.01,19.01,0,0,0,36.517,11.624M18.7,35.716A16.614,16.614,0,0,1,12.482,34.4a3.508,3.508,0,0,0-2.393-.126L5.328,35.736l.431-5.081A3.49,3.49,0,0,0,5.17,28.4,16.709,16.709,0,0,1,18.943,2.271H19a16.762,16.762,0,0,1,15.37,23.36A16.672,16.672,0,0,1,25.313,34.5,16.739,16.739,0,0,1,18.7,35.716" transform="translate(0 0.005)" fill="#03e4fb"/>
  </g>
</svg>
