<svg xmlns="http://www.w3.org/2000/svg" width="24" height="24" viewBox="0 0 46 46">
  <g transform="translate(-3242.302 -2264.539)">
        <rect width="46" height="46" rx="12" transform="translate(3242 2264)" fill="#fae100"/>
        <path d="M30.372,15.781c-7.733,0-14,5.8-14,12.95,0,5.282,2.212,7.8,5.243,10.1l.014.007v6.2a.356.356,0,0,0,.569.285l5.309-3.943.114.049a15.175,15.175,0,0,0,2.752.251c7.732,0,14-5.8,14-12.95s-6.267-12.95-14-12.95M25.679,32.012a2.925,2.925,0,0,0,2.9-2.091h2.029a4.856,4.856,0,0,1-4.929,4.043,5.249,5.249,0,1,1,0-10.5,4.862,4.862,0,0,1,4.943,4.118H28.6a2.887,2.887,0,0,0-2.92-2.193,3.169,3.169,0,0,0-3.295,3.324,3.25,3.25,0,0,0,3.295,3.3m13.375,1.752h-1.86v-4.2a1.336,1.336,0,0,0-1.428-1.486c-.966,0-1.586.591-1.586,1.788v3.894H32.319V23.5H34.18v3.861a2.383,2.383,0,0,1,2.148-1.009,2.552,2.552,0,0,1,1.946.793,2.992,2.992,0,0,1,.78,2.192Z" transform="translate(3234.628 2256.412)" fill="#020303"/>
      </g>
</svg>