<svg xmlns="http://www.w3.org/2000/svg" xmlns:xlink="http://www.w3.org/1999/xlink" width="30" height="30" viewBox="2 2 18 18" version="1.1">
<title>instagram</title>
<g id="instagram" stroke="none" stroke-width="1" fill="none" fill-rule="evenodd">
    <g transform="translate(2.500000, 2.500000)" fill="#7b5d44" fill-rule="nonzero">
    <path d="M11.9047037,0.000170442942 L4.80084367,0.0597364429 C3.51684367,0.0705034429 2.28972367,0.590892443 1.38942367,1.50643244 C0.489123666,2.42197244 -0.0106033336,3.65765244 0.000170666386,4.94165244 L0.0597786664,12.0455624 C0.0705526664,13.3295624 0.590943666,14.5566624 1.50648367,15.4570624 C2.42202367,16.3573624 3.65770367,16.8570624 4.94169367,16.8462624 L12.0456037,16.7867624 C13.3296037,16.7759624 14.5567037,16.2555624 15.4570037,15.3400624 C16.3573037,14.4244624 16.8570037,13.1888624 16.8462037,11.9048624 L16.7866037,4.80089244 C16.7759037,3.51690244 16.2555037,2.28976244 15.3399037,1.38945244 C14.4244037,0.489142443 13.1887037,-0.0105965571 11.9047037,0.000170442942 L11.9047037,0.000170442942 Z M15.3333037,12.0339624 C15.3391037,12.4598624 15.2601037,12.8825624 15.1010037,13.2776624 C14.9418037,13.6726624 14.7057037,14.0320624 14.4063037,14.3349624 C14.1069037,14.6378624 13.7502037,14.8782624 13.3571037,15.0419624 C12.9639037,15.2056624 12.5421037,15.2895624 12.1162037,15.2887624 L4.84594367,15.3496798 C3.99280367,15.3524624 3.17326367,15.0172624 2.56650367,14.4175624 C1.95974367,13.8177624 1.61512367,13.0021624 1.60797367,12.1490624 L1.54710367,4.89540244 C1.56168367,4.05659244 1.90228367,3.25642244 2.49672367,2.66444244 C3.09117367,2.07246244 3.89275367,1.73520244 4.73161367,1.72412244 L12.0019037,1.66303373 C12.8420037,1.65593244 13.6516037,1.97831244 14.2568037,2.56112244 C14.8620037,3.14393244 15.2147037,3.94074244 15.2391037,4.78059244 L15.3333037,12.0339624 Z" id="Shape"></path>
    <path d="M8.39650367,4.10699244 C7.53440367,4.11422244 6.69381367,4.37693244 5.98103367,4.86190244 C5.26824367,5.34686244 4.71527367,6.03231244 4.39204367,6.83155244 C4.06882367,7.63080244 3.98985367,8.50794244 4.16513367,9.35206244 C4.34042367,10.1961624 4.76207367,10.9693624 5.37678367,11.5738624 C5.99149367,12.1783624 6.77164367,12.5869624 7.61858367,12.7480624 C8.46552367,12.9091624 9.34121367,12.8154624 10.1349037,12.4789624 C10.9286037,12.1423624 11.6047037,11.5779624 12.0776037,10.8570624 C12.5506037,10.1362624 12.7991037,9.29140244 12.7919037,8.42930244 C12.7822037,7.27326244 12.3137037,6.16842244 11.4894037,5.35783244 C10.6651037,4.54724244 9.55250367,4.09730244 8.39650367,4.10699244 Z M8.45680367,11.2941624 C7.89676367,11.3020624 7.34695367,11.1436624 6.87708367,10.8387624 C6.40720367,10.5339624 6.03841367,10.0964624 5.81746367,9.58176244 C5.59651367,9.06708244 5.53335367,8.49838244 5.63598367,7.94776244 C5.73861367,7.39714244 6.00241367,6.88939244 6.39394367,6.48888244 C6.78548367,6.08836244 7.28711367,5.81311244 7.83526367,5.69802244 C8.38341367,5.58294244 8.95339367,5.63319244 9.47290367,5.84241244 C9.99250367,6.05164244 10.4382037,6.41042244 10.7537037,6.87326244 C11.0691037,7.33611244 11.2400037,7.88219244 11.2447037,8.44227244 C11.2510037,9.18950244 10.9613037,9.90886244 10.4389037,10.4431624 C9.91660367,10.9775624 9.20398367,11.2834624 8.45680367,11.2941624 Z" id="Shape"></path>
    <path d="M12.8904037,2.88502244 C12.6227037,2.89155244 12.3680037,3.00197244 12.1802037,3.19293244 C11.9925037,3.38389244 11.8863037,3.64040244 11.8843037,3.90821244 C11.8764037,4.04703244 11.8970037,4.18600244 11.9450037,4.31650244 C11.9930037,4.44700244 12.0673037,4.56625244 12.1633037,4.66683244 C12.2593037,4.76742244 12.3749037,4.84721244 12.5030037,4.90124244 C12.6311037,4.95527244 12.7689037,4.98240244 12.9080037,4.98093244 C13.1771037,4.97868244 13.4342037,4.86961244 13.6229037,4.67772244 C13.8116037,4.48583244 13.9163037,4.22685244 13.9141037,3.95774244 C13.9129037,3.82448244 13.8856037,3.69276244 13.8336037,3.57008244 C13.7815037,3.44740244 13.7059037,3.33617244 13.6109037,3.24273244 C13.5159037,3.14930244 13.4034037,3.07550244 13.2799037,3.02554244 C13.1563037,2.97557244 13.0242037,2.95044244 12.8909037,2.95155244" id="Path"></path>
    </g>
</g>
</svg>