<svg xmlns="http://www.w3.org/2000/svg"
 width="30" height="30" viewBox="0 0 764.000000 716.000000"
 preserveAspectRatio="xMidYMid meet">

<g transform="translate(0.000000,716.000000) scale(0.100000,-0.100000)"
fill="#7b5d44" stroke="none">
<path d="M3515 6814 c-22 -2 -96 -9 -165 -15 -741 -65 -1452 -323 -2020 -734
-608 -440 -1002 -1038 -1125 -1710 -22 -120 -32 -490 -16 -622 68 -563 320
-1063 756 -1498 250 -250 491 -428 819 -605 73 -39 96 -56 91 -68 -15 -41
-310 -1080 -331 -1169 -37 -157 -31 -197 30 -208 60 -12 152 38 516 276 140
92 596 404 1005 688 l61 42 129 -18 c166 -22 791 -25 955 -5 354 44 650 105
890 183 620 203 1130 510 1516 912 397 413 637 879 716 1387 20 133 17 579 -6
700 -96 521 -338 978 -725 1369 -268 272 -552 476 -911 655 -456 228 -918 362
-1455 422 -131 14 -638 27 -730 18z m-1153 -1995 c98 -21 157 -112 145 -222
-7 -59 -31 -100 -77 -132 -52 -36 -108 -44 -282 -45 l-158 0 0 -612 c0 -337
-5 -631 -10 -652 -13 -58 -39 -87 -110 -125 -62 -33 -65 -34 -114 -21 -114 28
-159 70 -176 161 -6 30 -10 297 -10 650 l0 599 -157 0 c-221 1 -278 17 -334
98 -20 30 -24 48 -24 107 0 63 4 77 29 114 30 43 68 69 121 82 52 12 1097 10
1157 -2z m741 -9 c57 -21 135 -88 160 -137 31 -60 525 -1371 536 -1421 16 -79
14 -124 -12 -171 -28 -53 -91 -81 -184 -81 -127 0 -153 26 -224 216 l-54 144
-316 0 -316 0 -53 -141 c-59 -157 -81 -189 -138 -208 -55 -19 -167 -11 -216
15 -72 37 -95 129 -62 249 17 66 501 1336 532 1396 43 87 156 157 251 158 23
1 66 -8 96 -19z m1134 -16 c46 -26 74 -61 91 -113 9 -24 12 -212 12 -651 l0
-618 248 -3 249 -4 49 -30 c69 -44 96 -93 91 -172 -2 -52 -8 -69 -34 -100 -64
-80 -49 -78 -488 -78 -380 0 -391 1 -430 21 -49 27 -70 49 -90 97 -13 32 -15
133 -15 777 0 646 2 745 15 778 50 117 188 161 302 96z m1137 2 c29 -17 55
-44 73 -74 l28 -47 4 -243 3 -244 302 300 c261 261 306 301 339 307 93 18 183
-25 225 -106 26 -50 29 -126 8 -167 -8 -15 -123 -135 -255 -267 -133 -132
-241 -243 -241 -246 0 -4 113 -157 252 -340 138 -184 259 -347 269 -364 62
-110 4 -256 -118 -291 -34 -10 -68 -13 -91 -9 -87 16 -99 30 -369 385 l-257
340 -32 -31 -32 -31 -4 -257 c-3 -226 -5 -260 -22 -291 -42 -80 -105 -120
-187 -120 -92 0 -164 52 -198 143 -15 39 -15 1487 0 1540 34 124 187 181 303
113z"/>
<path d="M2904 4013 l-101 -288 103 -3 c57 -1 150 -1 207 0 l103 3 -100 287
c-56 158 -103 288 -106 288 -3 0 -51 -129 -106 -287z"/>
</g>
</svg>
