<svg version="1.0" xmlns="http://www.w3.org/2000/svg"
 width="512.000000pt" height="512.000000pt" viewBox="0 0 512.000000 512.000000"
 preserveAspectRatio="xMidYMid meet">
<g transform="translate(0.000000,512.000000) scale(0.100000,-0.100000)"
fill="#7b5d44" stroke="none">
<path d="M2200 5104 c-364 -43 -744 -164 -1045 -332 -854 -475 -1277 -1314
-1089 -2161 62 -279 194 -549 381 -781 88 -109 262 -275 382 -364 351 -261
795 -437 1261 -499 l95 -13 5 -453 5 -453 28 -24 c30 -26 92 -33 128 -14 34
19 1730 1319 1849 1418 411 343 671 676 803 1032 178 480 100 1080 -200 1544
-390 603 -1086 1007 -1898 1101 -162 19 -545 18 -705 -1z m758 -228 c808 -124
1469 -569 1761 -1187 239 -506 205 -1034 -96 -1486 -125 -187 -319 -396 -543
-584 -63 -53 -464 -363 -890 -689 l-775 -592 -5 381 -5 381 -30 30 c-29 28
-38 31 -160 45 -744 86 -1347 417 -1690 930 -284 424 -357 937 -200 1401 167
493 578 917 1128 1165 236 106 500 178 781 214 147 19 579 13 724 -9z"/>
<path d="M1127 3579 c-45 -26 -47 -52 -47 -536 0 -346 3 -464 13 -483 27 -54
59 -60 330 -60 265 0 287 4 321 52 21 29 20 97 0 127 -31 43 -70 51 -259 51
l-175 0 0 368 c0 231 -4 381 -11 406 -17 60 -49 86 -106 86 -26 0 -56 -5 -66
-11z"/>
<path d="M1900 3563 c-20 -26 -21 -32 -18 -524 3 -565 -3 -528 87 -537 61 -6
104 10 120 44 8 17 11 171 11 510 l0 485 -25 24 c-21 21 -33 25 -89 25 -58 0
-67 -3 -86 -27z"/>
<path d="M2331 3576 c-50 -28 -50 -28 -51 -532 0 -454 1 -472 20 -496 62 -80
177 -52 201 49 5 21 9 147 9 281 0 150 4 241 9 237 6 -3 101 -123 212 -268
111 -144 218 -279 238 -299 43 -47 85 -56 136 -32 65 31 65 30 65 533 0 256
-4 460 -9 474 -18 46 -50 67 -104 67 -40 0 -53 -5 -78 -29 l-29 -29 -1 -209
c-1 -114 -4 -242 -8 -283 l-6 -74 -51 64 c-28 36 -132 172 -233 302 -100 131
-190 242 -201 248 -26 14 -90 12 -119 -4z"/>
<path d="M3403 3580 c-12 -5 -30 -21 -40 -37 -17 -25 -18 -63 -21 -473 -3
-485 -1 -505 51 -544 27 -20 40 -21 297 -21 257 0 270 1 297 21 55 41 55 137
0 178 -26 19 -44 21 -218 24 l-189 4 0 98 0 98 188 4 c158 3 191 6 213 21 57
38 66 118 20 169 l-29 33 -184 6 c-100 4 -184 7 -185 8 -27 19 -33 39 -33 106
0 48 4 77 13 82 6 4 97 10 200 13 l189 5 29 33 c20 23 29 43 29 68 0 42 -23
89 -49 104 -24 12 -546 13 -578 0z"/>
</g>
</svg>
